*
*
G04 PADS Layout (Build Number 2004.211.1) generated Gerber (RS-274-X) file*
G04 PC Version=2.1*
*
%IN "BD9A300MUV-EVK-004.pcb"*%
*
%MOMM*%
*
%FSLAX35Y35*%
*
*
*
*
G04 PC Standard Apertures*
*
*
G04 Thermal Relief Aperture macro.*
%AMTER*
1,1,$1,0,0*
1,0,$1-$2,0,0*
21,0,$3,$4,0,0,45*
21,0,$3,$4,0,0,135*
%
*
*
G04 Annular Aperture macro.*
%AMANN*
1,1,$1,0,0*
1,0,$2,0,0*
%
*
*
G04 Odd Aperture macro.*
%AMODD*
1,1,$1,0,0*
1,0,$1-0.005,0,0*
%
*
*
G04 PC Custom Aperture Macros*
*
*
*
*
*
*
G04 PC Aperture Table*
*
%ADD014C,1.8*%
%ADD017C,3.3*%
%ADD019C,0.2*%
%ADD020C,0.6*%
%ADD021C,0.1*%
%ADD022C,2*%
%ADD023C,0.3*%
%ADD049O,3X2.5*%
*
*
*
*
G04 PC Custom Flashes*
G04 Layer Name BD9A300MUV-EVK-004.pcb - flashes*
%LPD*%
*
*
G04 PC Circuitry*
G04 Layer Name BD9A300MUV-EVK-004.pcb - circuitry*
%LPD*%
*
G54D14*
G01X11150000Y14100000D03*
Y13850000D03*
Y13600000D03*
G54D17*
X10500000Y10500000D03*
X14500000D03*
X10500000Y14500000D03*
X14500000D03*
G54D19*
X11150000Y13420000D02*
X11206568Y13543431D01*
X11206568D02*
X11150000Y13500000D01*
X11093431Y13543431*
X11093431D02*
X11150000Y13420000D01*
X11150000*
X11140834Y13440000D02*
X11159166D01*
X11131668Y13460000D02*
X11168332D01*
X11122502Y13480000D02*
X11177498D01*
X11113336Y13500000D02*
X11150000D01*
X11186664*
X11104170Y13520000D02*
X11123950D01*
X11176049D02*
X11195830D01*
X11095004Y13540000D02*
X11097901D01*
X11202099D02*
X11204995D01*
X11100000Y13529099D02*
Y13538388D01*
X11120000Y13485459D02*
Y13523033D01*
X11140000Y13441819D02*
Y13507677D01*
X11160000Y13441819D02*
Y13507677D01*
X11180000Y13485459D02*
Y13523033D01*
X11200000Y13529099D02*
Y13538388D01*
X12450000Y12200000D02*
X12435857Y12154142D01*
X12435857D02*
X12450000Y12180000D01*
X12464142Y12154142*
X12450000Y12200000*
X12437664Y12160000D02*
X12439061D01*
X12460938D02*
X12462335D01*
X12443832Y12180000D02*
X12450000D01*
X12456167*
X12450000Y12200000D02*
X12450000D01*
X12440000Y12161715D02*
Y12167573D01*
X12460000Y12161715D02*
Y12167573D01*
X11800000Y13000000D02*
X11663639Y13063639D01*
X11663639D02*
X11710000Y13000000D01*
X11663639Y12936360*
X11663639D02*
X11800000Y13000000D01*
X11666291Y12940000D02*
X11671438D01*
X11680860Y12960000D02*
X11714292D01*
X11695430Y12980000D02*
X11757146D01*
X11710000Y13000000D02*
X11800000D01*
X11695430Y13020000D02*
X11757146D01*
X11680860Y13040000D02*
X11714292D01*
X11666291Y13060000D02*
X11671438D01*
X11680000Y12943995D02*
Y12958818D01*
Y13041181D02*
Y13056004D01*
X11700000Y12953329D02*
Y12986272D01*
Y13013727D02*
Y13046670D01*
X11720000Y12962663D02*
Y13037336D01*
X11740000Y12971997D02*
Y13028002D01*
X11760000Y12981332D02*
Y13018668D01*
X11780000Y12990666D02*
Y13009334D01*
X11800000Y13000000D02*
X11800000D01*
X10500000Y12346000D02*
X10874000Y12720000D01*
Y13100000*
X11150000Y13376000*
Y13600000*
X12450000Y12140000D02*
Y12850000D01*
X12350000Y13000000*
X11600000*
X8999999Y31600000D02*
G75*
G03X8999999I-199999D01*
G01X8550000D02*
X9050000D01*
X8800000Y31850000D02*
Y31350000D01*
X39799999Y8400000D02*
G03X39799999I-199999D01*
G01X39350000D02*
X39850000D01*
X39600000Y8650000D02*
Y8150000D01*
X40399999Y8400000D02*
G03X40399999I-199999D01*
G01X39950000D02*
X40450000D01*
X40200000Y8650000D02*
Y8150000D01*
G54D20*
X12070000Y11860000D03*
X13300000Y12100000D03*
X13500000D03*
X13700000D03*
X13900000D03*
X14100000D03*
X12450000Y12140000D03*
X13400000Y12200000D03*
X13300000Y12300000D03*
X13500000D03*
X13600000Y12200000D03*
X13700000Y12300000D03*
X13800000Y12200000D03*
X13900000Y12300000D03*
X14200000Y12200000D03*
X14100000Y12300000D03*
X12160000Y12560000D03*
X12240000D03*
X14000000Y12600000D03*
X14200000Y12400000D03*
X12160000Y12640000D03*
X12240000D03*
G54D21*
X12075000Y11700000D02*
G03X12075000I-125000D01*
G01X13725000Y13000000D02*
G03X13725000I-125000D01*
G01X12875000Y12050000D02*
G03X12875000I-125000D01*
G01X12845000Y13130000D02*
G03X12845000I-125000D01*
G01X12350000Y14100000D02*
G03X12350000I-125000D01*
G01X11265000Y13850000D02*
G03X11265000I-115000D01*
G01Y14100000D02*
G03X11265000I-115000D01*
G01X14795000Y10796859D02*
Y14203140D01*
X14795000D02*
G03X14786506Y14206717I-5000J0D01*
G01X14206717Y14786505D02*
G03X14786505Y14206717I293283J-286505D01*
G01X14206717Y14786506D02*
G03X14203140Y14795000I-3576J3494D01*
G01X14203140D02*
X10796859D01*
G03X10793282Y14786506I0J-5000*
G01X10213494Y14206717D02*
G03X10793282Y14786505I286506J293283D01*
G01X10213493Y14206717D02*
G03X10205000Y14203140I-3493J-3576D01*
G01X10205000D02*
Y10796859D01*
G03X10213493Y10793282I5000J0*
G01X10793282Y10213494D02*
G03X10213494Y10793282I-293282J286506D01*
G01X10793282Y10213493D02*
G03X10796859Y10205000I3577J-3493D01*
G01X14203140*
X14203140D02*
G03X14206717Y10213493I0J5000D01*
G01X14786505Y10793282D02*
G03X14206717Y10213494I-286505J-293282D01*
G01X14786506Y10793282D02*
G03X14795000Y10796859I3494J3577D01*
G01X14525000Y12603999D02*
G03Y12904000I0J150001D01*
G01Y12603999D02*
X14475000D01*
Y12904000D02*
G03Y12603999I0J-150000D01*
G01Y12904000D02*
X14525000D01*
X12075000Y11700000D02*
G03X12075000I-125000D01*
G01X14048385Y12573849D02*
G03X13951614I-48385J26151D01*
G01X14048386D02*
G03X14047896Y12572521I4398J-2377D01*
G01X14047896D02*
X14040112Y12536272D01*
X14040112D02*
G03X14040000Y12535222I4888J-1049D01*
G01X14040000D02*
Y11900000D01*
X14028284Y11871715D02*
G03X14040000Y11900000I-28284J28285D01*
G01X14028284Y11871715D02*
X13788284Y11631715D01*
X13760000Y11619999D02*
G03X13788284Y11631715I0J40001D01*
G01X13760000Y11619999D02*
X12270000D01*
X12241715Y11631715D02*
G03X12270000Y11619999I28285J28285D01*
G01X12241715Y11631715D02*
X12087519Y11785911D01*
G03X12086698Y11786574I-3535J-3535*
G01X12086698D02*
X12055562Y11806702D01*
X12055562D02*
G03X12054277Y11807294I-2713J-4198D01*
G01X12122705Y11875722D02*
G03X12054277Y11807294I-52705J-15722D01*
G01X12122705Y11875722D02*
G03X12123297Y11874437I4791J1430D01*
G01X12123297D02*
X12143425Y11843301D01*
X12143425D02*
G03X12144089Y11842480I4199J2714D01*
G01X12285104Y11701465*
G03X12288639Y11700000I3535J3535*
G01X12288639D02*
X13741360D01*
X13741360D02*
G03X13744895Y11701465I0J5000D01*
G01X13744895D02*
X13958535Y11915104D01*
G03X13959999Y11918639I-3535J3535*
G01X13959999D02*
Y12535222D01*
X13959999D02*
G03X13959888Y12536272I-4999J0D01*
G01X13952104Y12572521*
G03X13951614Y12573849I-4888J-1049*
G01X13725000Y13000000D02*
G03X13725000I-125000D01*
G01X12875000Y12050000D02*
G03X12875000I-125000D01*
G01X12845000Y13130000D02*
G03X12845000I-125000D01*
G01X12403934Y12170050D02*
G03X12496065I46066J-30050D01*
G01X12403934D02*
G03X12404524Y12171309I-4187J2732D01*
G01X12404524D02*
X12414777Y12204554D01*
X12414777D02*
G03X12414999Y12206027I-4777J1473D01*
G01X12414999D02*
Y12837888D01*
X12414999D02*
G03X12414159Y12840662I-4999J0D01*
G01X12414159D02*
X12332752Y12962773D01*
Y12962772D02*
G03X12328592Y12964999I-4159J-2772D01*
G01X12328592D02*
X11808874D01*
X11808874D02*
G03X11806760Y12964530I0J-4999D01*
G01X11684226Y12907343*
X11684226D02*
G03X11683020Y12906550I2115J-4530D01*
G01Y13093449D02*
G03Y12906551I-83020J-93449D01*
G01Y13093449D02*
G03X11684226Y13092656I3320J3738D01*
G01X11684226D02*
X11806760Y13035469D01*
X11806760D02*
G03X11808874Y13035000I2114J4531D01*
G01X11808874D02*
X12350000D01*
X12379122Y13019414D02*
G03X12350000Y13035000I-29122J-19414D01*
G01X12379122Y13019414D02*
X12479122Y12869414D01*
X12485000Y12850000D02*
G03X12479122Y12869414I-35000J0D01*
G01X12485000Y12850000D02*
Y12206027D01*
X12485000D02*
G03X12485222Y12204554I5000J0D01*
G01X12485222D02*
X12495475Y12171308D01*
X12495475D02*
G03X12496065Y12170050I4778J1474D01*
G01X12350000Y14100000D02*
G03X12350000I-125000D01*
G01X11265000Y13850000D02*
G03X11265000I-115000D01*
G01Y14100000D02*
G03X11265000I-115000D01*
G01X10525000Y12703999D02*
G03Y13004000I0J150001D01*
G01Y12703999D02*
X10475000D01*
Y13004000D02*
G03Y12703999I0J-150000D01*
G01Y13004000D02*
X10525000D01*
X14780498Y14200966D02*
X14795000D01*
X14770584Y14191966D02*
X14795000D01*
X14759981Y14182966D02*
X14795000D01*
X14748601Y14173966D02*
X14795000D01*
X14736332Y14164966D02*
X14795000D01*
X14723028Y14155966D02*
X14795000D01*
X14708489Y14146966D02*
X14795000D01*
X14692437Y14137966D02*
X14795000D01*
X14674455Y14128966D02*
X14795000D01*
X14653867Y14119966D02*
X14795000D01*
X14629435Y14110966D02*
X14795000D01*
X14598335Y14101966D02*
X14795000D01*
X14549237Y14092966D02*
X14795000D01*
X12348968Y14083966D02*
X14795000D01*
X12347468Y14074966D02*
X14795000D01*
X12345278Y14065966D02*
X14795000D01*
X12342359Y14056966D02*
X14795000D01*
X12338655Y14047966D02*
X14795000D01*
X12334087Y14038966D02*
X14795000D01*
X12328539Y14029966D02*
X14795000D01*
X12321844Y14020966D02*
X14795000D01*
X12313742Y14011966D02*
X14795000D01*
X12303801Y14002966D02*
X14795000D01*
X12291197Y13993966D02*
X14795000D01*
X12273912Y13984966D02*
X14795000D01*
X12240519Y13975966D02*
X14795000D01*
X10205000Y13966966D02*
X14795000D01*
X11189602Y13957966D02*
X14795000D01*
X11208572Y13948966D02*
X14795000D01*
X11221631Y13939966D02*
X14795000D01*
X11231667Y13930966D02*
X14795000D01*
X11239699Y13921966D02*
X14795000D01*
X11246230Y13912966D02*
X14795000D01*
X11251551Y13903966D02*
X14795000D01*
X11255844Y13894966D02*
X14795000D01*
X11259231Y13885966D02*
X14795000D01*
X11261794Y13876966D02*
X14795000D01*
X11263588Y13867966D02*
X14795000D01*
X11264650Y13858966D02*
X14795000D01*
X11265000Y13849966D02*
X14795000D01*
X11264645Y13840966D02*
X14795000D01*
X11263577Y13831966D02*
X14795000D01*
X11261778Y13822966D02*
X14795000D01*
X11259209Y13813966D02*
X14795000D01*
X11255816Y13804966D02*
X14795000D01*
X11251516Y13795966D02*
X14795000D01*
X11246186Y13786966D02*
X14795000D01*
X11239645Y13777966D02*
X14795000D01*
X11231601Y13768966D02*
X14795000D01*
X11221548Y13759966D02*
X14795000D01*
X11208459Y13750966D02*
X14795000D01*
X11189419Y13741966D02*
X14795000D01*
X10205000Y13732966D02*
X14795000D01*
X10205000Y13723966D02*
X14795000D01*
X10205000Y13714966D02*
X14795000D01*
X10205000Y13705966D02*
X14795000D01*
X10205000Y13696966D02*
X14795000D01*
X10205000Y13687966D02*
X14795000D01*
X10205000Y13678966D02*
X14795000D01*
X10205000Y13669966D02*
X14795000D01*
X10205000Y13660966D02*
X14795000D01*
X10205000Y13651966D02*
X14795000D01*
X10205000Y13642966D02*
X14795000D01*
X10205000Y13633966D02*
X14795000D01*
X10205000Y13624966D02*
X14795000D01*
X10205000Y13615966D02*
X14795000D01*
X10205000Y13606966D02*
X14795000D01*
X10205000Y13597966D02*
X14795000D01*
X10205000Y13588966D02*
X14795000D01*
X10205000Y13579966D02*
X14795000D01*
X10205000Y13570966D02*
X14795000D01*
X10205000Y13561966D02*
X14795000D01*
X10205000Y13552966D02*
X14795000D01*
X10205000Y13543966D02*
X14795000D01*
X10205000Y13534966D02*
X14795000D01*
X10205000Y13525966D02*
X14795000D01*
X10205000Y13516966D02*
X14795000D01*
X10205000Y13507966D02*
X14795000D01*
X10205000Y13498966D02*
X14795000D01*
X10205000Y13489966D02*
X14795000D01*
X10205000Y13480966D02*
X14795000D01*
X10205000Y13471966D02*
X14795000D01*
X10205000Y13462966D02*
X14795000D01*
X10205000Y13453966D02*
X14795000D01*
X10205000Y13444966D02*
X14795000D01*
X10205000Y13435966D02*
X14795000D01*
X10205000Y13426966D02*
X14795000D01*
X10205000Y13417966D02*
X14795000D01*
X10205000Y13408966D02*
X14795000D01*
X10205000Y13399966D02*
X14795000D01*
X10205000Y13390966D02*
X14795000D01*
X10205000Y13381966D02*
X14795000D01*
X10205000Y13372966D02*
X14795000D01*
X10205000Y13363966D02*
X14795000D01*
X10205000Y13354966D02*
X14795000D01*
X10205000Y13345966D02*
X14795000D01*
X10205000Y13336966D02*
X14795000D01*
X10205000Y13327966D02*
X14795000D01*
X10205000Y13318966D02*
X14795000D01*
X10205000Y13309966D02*
X14795000D01*
X10205000Y13300966D02*
X14795000D01*
X10205000Y13291966D02*
X14795000D01*
X10205000Y13282966D02*
X14795000D01*
X10205000Y13273966D02*
X14795000D01*
X10205000Y13264966D02*
X14795000D01*
X10205000Y13255966D02*
X14795000D01*
X12764090Y13246966D02*
X14795000D01*
X12782994Y13237966D02*
X14795000D01*
X12796359Y13228966D02*
X14795000D01*
X12806782Y13219966D02*
X14795000D01*
X12815234Y13210966D02*
X14795000D01*
X12822205Y13201966D02*
X14795000D01*
X12827983Y13192966D02*
X14795000D01*
X12832750Y13183966D02*
X14795000D01*
X12836632Y13174966D02*
X14795000D01*
X12839714Y13165966D02*
X14795000D01*
X12842057Y13156966D02*
X14795000D01*
X12843702Y13147966D02*
X14795000D01*
X12844678Y13138966D02*
X14795000D01*
X12845000Y13129966D02*
X14795000D01*
X13631499Y13120966D02*
X14795000D01*
X13655575Y13111966D02*
X14795000D01*
X13670873Y13102966D02*
X14795000D01*
X13682434Y13093966D02*
X14795000D01*
X13691683Y13084966D02*
X14795000D01*
X13699268Y13075966D02*
X14795000D01*
X13705549Y13066966D02*
X14795000D01*
X13710747Y13057966D02*
X14795000D01*
X13715010Y13048966D02*
X14795000D01*
X13718439Y13039966D02*
X14795000D01*
X13721104Y13030966D02*
X14795000D01*
X13723055Y13021966D02*
X14795000D01*
X13724326Y13012966D02*
X14795000D01*
X13724937Y13003966D02*
X14795000D01*
X13724899Y12994966D02*
X14795000D01*
X13724210Y12985966D02*
X14795000D01*
X13722860Y12976966D02*
X14795000D01*
X13720826Y12967966D02*
X14795000D01*
X13718073Y12958966D02*
X14795000D01*
X13714550Y12949966D02*
X14795000D01*
X13710182Y12940966D02*
X14795000D01*
X13704864Y12931966D02*
X14795000D01*
X13698442Y12922966D02*
X14795000D01*
X13690682Y12913966D02*
X14795000D01*
X13681202Y12904966D02*
X14795000D01*
X14573431Y12895966D02*
X14795000D01*
X14594426Y12886966D02*
X14795000D01*
X14609453Y12877966D02*
X14795000D01*
X14621347Y12868966D02*
X14795000D01*
X14631166Y12859966D02*
X14795000D01*
X14639444Y12850966D02*
X14795000D01*
X14646499Y12841966D02*
X14795000D01*
X14652532Y12832966D02*
X14795000D01*
X14657683Y12823966D02*
X14795000D01*
X14662051Y12814966D02*
X14795000D01*
X14665711Y12805966D02*
X14795000D01*
X14668715Y12796966D02*
X14795000D01*
X14671104Y12787966D02*
X14795000D01*
X14672908Y12778966D02*
X14795000D01*
X14674148Y12769966D02*
X14795000D01*
X14674838Y12760966D02*
X14795000D01*
X14674986Y12751966D02*
X14795000D01*
X14674594Y12742966D02*
X14795000D01*
X14673656Y12733966D02*
X14795000D01*
X14672163Y12724966D02*
X14795000D01*
X14670098Y12715966D02*
X14795000D01*
X14667436Y12706966D02*
X14795000D01*
X14664141Y12697966D02*
X14795000D01*
X14660169Y12688966D02*
X14795000D01*
X14655457Y12679966D02*
X14795000D01*
X14649922Y12670966D02*
X14795000D01*
X14643448Y12661966D02*
X14795000D01*
X14635871Y12652966D02*
X14795000D01*
X14626945Y12643966D02*
X14795000D01*
X14616275Y12634966D02*
X14795000D01*
X14603151Y12625966D02*
X14795000D01*
X14586008Y12616966D02*
X14795000D01*
X14559269Y12607966D02*
X14795000D01*
X14054990Y12598966D02*
X14795000D01*
X14054077Y12589966D02*
X14795000D01*
X14051602Y12580966D02*
X14795000D01*
X14047776Y12571966D02*
X14795000D01*
X14045844Y12562966D02*
X14795000D01*
X14043911Y12553966D02*
X14795000D01*
X14041978Y12544966D02*
X14795000D01*
X14040056Y12535966D02*
X14795000D01*
X14040000Y12526966D02*
X14795000D01*
X14040000Y12517966D02*
X14795000D01*
X14040000Y12508966D02*
X14795000D01*
X14040000Y12499966D02*
X14795000D01*
X14040000Y12490966D02*
X14795000D01*
X14040000Y12481966D02*
X14795000D01*
X14040000Y12472966D02*
X14795000D01*
X14040000Y12463966D02*
X14795000D01*
X14040000Y12454966D02*
X14795000D01*
X14040000Y12445966D02*
X14795000D01*
X14040000Y12436966D02*
X14795000D01*
X14040000Y12427966D02*
X14795000D01*
X14040000Y12418966D02*
X14795000D01*
X14040000Y12409966D02*
X14795000D01*
X14040000Y12400966D02*
X14795000D01*
X14040000Y12391966D02*
X14795000D01*
X14040000Y12382966D02*
X14795000D01*
X14040000Y12373966D02*
X14795000D01*
X14040000Y12364966D02*
X14795000D01*
X14040000Y12355966D02*
X14795000D01*
X14040000Y12346966D02*
X14795000D01*
X14040000Y12337966D02*
X14795000D01*
X14040000Y12328966D02*
X14795000D01*
X14040000Y12319966D02*
X14795000D01*
X14040000Y12310966D02*
X14795000D01*
X14040000Y12301966D02*
X14795000D01*
X14040000Y12292966D02*
X14795000D01*
X14040000Y12283966D02*
X14795000D01*
X14040000Y12274966D02*
X14795000D01*
X14040000Y12265966D02*
X14795000D01*
X14040000Y12256966D02*
X14795000D01*
X14040000Y12247966D02*
X14795000D01*
X14040000Y12238966D02*
X14795000D01*
X14040000Y12229966D02*
X14795000D01*
X14040000Y12220966D02*
X14795000D01*
X14040000Y12211966D02*
X14795000D01*
X14040000Y12202966D02*
X14795000D01*
X14040000Y12193966D02*
X14795000D01*
X14040000Y12184966D02*
X14795000D01*
X14040000Y12175966D02*
X14795000D01*
X14040000Y12166966D02*
X14795000D01*
X14040000Y12157966D02*
X14795000D01*
X14040000Y12148966D02*
X14795000D01*
X14040000Y12139966D02*
X14795000D01*
X14040000Y12130966D02*
X14795000D01*
X14040000Y12121966D02*
X14795000D01*
X14040000Y12112966D02*
X14795000D01*
X14040000Y12103966D02*
X14795000D01*
X14040000Y12094966D02*
X14795000D01*
X14040000Y12085966D02*
X14795000D01*
X14040000Y12076966D02*
X14795000D01*
X14040000Y12067966D02*
X14795000D01*
X14040000Y12058966D02*
X14795000D01*
X14040000Y12049966D02*
X14795000D01*
X14040000Y12040966D02*
X14795000D01*
X14040000Y12031966D02*
X14795000D01*
X14040000Y12022966D02*
X14795000D01*
X14040000Y12013966D02*
X14795000D01*
X14040000Y12004966D02*
X14795000D01*
X14040000Y11995966D02*
X14795000D01*
X14040000Y11986966D02*
X14795000D01*
X14040000Y11977966D02*
X14795000D01*
X14040000Y11968966D02*
X14795000D01*
X14040000Y11959966D02*
X14795000D01*
X14040000Y11950966D02*
X14795000D01*
X14040000Y11941966D02*
X14795000D01*
X14040000Y11932966D02*
X14795000D01*
X14040000Y11923966D02*
X14795000D01*
X14040000Y11914966D02*
X14795000D01*
X14040000Y11905966D02*
X14795000D01*
X14039885Y11896966D02*
X14795000D01*
X14038147Y11887966D02*
X14795000D01*
X14034024Y11878966D02*
X14795000D01*
X14026536Y11869966D02*
X14795000D01*
X14017536Y11860966D02*
X14795000D01*
X14008536Y11851966D02*
X14795000D01*
X13999536Y11842966D02*
X14795000D01*
X13990536Y11833966D02*
X14795000D01*
X13981536Y11824966D02*
X14795000D01*
X13972536Y11815966D02*
X14795000D01*
X13963536Y11806966D02*
X14795000D01*
X13954536Y11797966D02*
X14795000D01*
X13945536Y11788966D02*
X14795000D01*
X13936536Y11779966D02*
X14795000D01*
X13927536Y11770966D02*
X14795000D01*
X13918536Y11761966D02*
X14795000D01*
X13909536Y11752966D02*
X14795000D01*
X13900536Y11743966D02*
X14795000D01*
X13891536Y11734966D02*
X14795000D01*
X13882536Y11725966D02*
X14795000D01*
X13873536Y11716966D02*
X14795000D01*
X13864536Y11707966D02*
X14795000D01*
X13855536Y11698966D02*
X14795000D01*
X13846536Y11689966D02*
X14795000D01*
X13837536Y11680966D02*
X14795000D01*
X13828536Y11671966D02*
X14795000D01*
X13819536Y11662966D02*
X14795000D01*
X13810536Y11653966D02*
X14795000D01*
X13801536Y11644966D02*
X14795000D01*
X13792536Y11635966D02*
X14795000D01*
X13782557Y11626966D02*
X14795000D01*
X12044316Y11617966D02*
X14795000D01*
X12035662Y11608966D02*
X14795000D01*
X12024956Y11599966D02*
X14795000D01*
X12011129Y11590966D02*
X14795000D01*
X11991149Y11581966D02*
X14795000D01*
X10205000Y11572966D02*
X14795000D01*
X10205000Y11563966D02*
X14795000D01*
X10205000Y11554966D02*
X14795000D01*
X10205000Y11545966D02*
X14795000D01*
X10205000Y11536966D02*
X14795000D01*
X10205000Y11527966D02*
X14795000D01*
X10205000Y11518966D02*
X14795000D01*
X10205000Y11509966D02*
X14795000D01*
X10205000Y11500966D02*
X14795000D01*
X10205000Y11491966D02*
X14795000D01*
X10205000Y11482966D02*
X14795000D01*
X10205000Y11473966D02*
X14795000D01*
X10205000Y11464966D02*
X14795000D01*
X10205000Y11455966D02*
X14795000D01*
X10205000Y11446966D02*
X14795000D01*
X10205000Y11437966D02*
X14795000D01*
X10205000Y11428966D02*
X14795000D01*
X10205000Y11419966D02*
X14795000D01*
X10205000Y11410966D02*
X14795000D01*
X10205000Y11401966D02*
X14795000D01*
X10205000Y11392966D02*
X14795000D01*
X10205000Y11383966D02*
X14795000D01*
X10205000Y11374966D02*
X14795000D01*
X10205000Y11365966D02*
X14795000D01*
X10205000Y11356966D02*
X14795000D01*
X10205000Y11347966D02*
X14795000D01*
X10205000Y11338966D02*
X14795000D01*
X10205000Y11329966D02*
X14795000D01*
X10205000Y11320966D02*
X14795000D01*
X10205000Y11311966D02*
X14795000D01*
X10205000Y11302966D02*
X14795000D01*
X10205000Y11293966D02*
X14795000D01*
X10205000Y11284966D02*
X14795000D01*
X10205000Y11275966D02*
X14795000D01*
X10205000Y11266966D02*
X14795000D01*
X10205000Y11257966D02*
X14795000D01*
X10205000Y11248966D02*
X14795000D01*
X10205000Y11239966D02*
X14795000D01*
X10205000Y11230966D02*
X14795000D01*
X10205000Y11221966D02*
X14795000D01*
X10205000Y11212966D02*
X14795000D01*
X10205000Y11203966D02*
X14795000D01*
X10205000Y11194966D02*
X14795000D01*
X10205000Y11185966D02*
X14795000D01*
X10205000Y11176966D02*
X14795000D01*
X10205000Y11167966D02*
X14795000D01*
X10205000Y11158966D02*
X14795000D01*
X10205000Y11149966D02*
X14795000D01*
X10205000Y11140966D02*
X14795000D01*
X10205000Y11131966D02*
X14795000D01*
X10205000Y11122966D02*
X14795000D01*
X10205000Y11113966D02*
X14795000D01*
X10205000Y11104966D02*
X14795000D01*
X10205000Y11095966D02*
X14795000D01*
X10205000Y11086966D02*
X14795000D01*
X10205000Y11077966D02*
X14795000D01*
X10205000Y11068966D02*
X14795000D01*
X10205000Y11059966D02*
X14795000D01*
X10205000Y11050966D02*
X14795000D01*
X10205000Y11041966D02*
X14795000D01*
X10205000Y11032966D02*
X14795000D01*
X10205000Y11023966D02*
X14795000D01*
X10205000Y11014966D02*
X14795000D01*
X10205000Y11005966D02*
X14795000D01*
X10205000Y10996966D02*
X14795000D01*
X10205000Y10987966D02*
X14795000D01*
X10205000Y10978966D02*
X14795000D01*
X10205000Y10969966D02*
X14795000D01*
X10205000Y10960966D02*
X14795000D01*
X10205000Y10951966D02*
X14795000D01*
X10205000Y10942966D02*
X14795000D01*
X10205000Y10933966D02*
X14795000D01*
X10205000Y10924966D02*
X14795000D01*
X10205000Y10915966D02*
X14795000D01*
X14549785Y10906966D02*
X14795000D01*
X14598605Y10897966D02*
X14795000D01*
X14629635Y10888966D02*
X14795000D01*
X14654031Y10879966D02*
X14795000D01*
X14674597Y10870966D02*
X14795000D01*
X14692563Y10861966D02*
X14795000D01*
X14708602Y10852966D02*
X14795000D01*
X14723130Y10843966D02*
X14795000D01*
X14736427Y10834966D02*
X14795000D01*
X14748688Y10825966D02*
X14795000D01*
X14760062Y10816966D02*
X14795000D01*
X14770660Y10807966D02*
X14795000D01*
X14780569Y10798966D02*
X14795000D01*
X12349802Y14092966D02*
X14450762D01*
X10549785Y10906966D02*
X14450214D01*
X14054420Y12607966D02*
X14440730D01*
X13669297Y12895966D02*
X14426568D01*
X14052318Y12616966D02*
X14413991D01*
X13653372Y12886966D02*
X14405573D01*
X12349985Y14101966D02*
X14401664D01*
X10598605Y10897966D02*
X14401394D01*
X14048484Y12625966D02*
X14396848D01*
X13627073Y12877966D02*
X14390546D01*
X14042454Y12634966D02*
X14383724D01*
X12479416Y12868966D02*
X14378652D01*
X14033045Y12643966D02*
X14373054D01*
X12349518Y14110966D02*
X14370564D01*
X10629635Y10888966D02*
X14370364D01*
X12483551Y12859966D02*
X14368834D01*
X14014818Y12652966D02*
X14364128D01*
X12484987Y12850966D02*
X14360555D01*
X12485000Y12661966D02*
X14356551D01*
X12485000Y12841966D02*
X14353500D01*
X12485000Y12670966D02*
X14350077D01*
X12485000Y12832966D02*
X14347467D01*
X12348395Y14119966D02*
X14346132D01*
X10654031Y10879966D02*
X14345968D01*
X12485000Y12679966D02*
X14344542D01*
X12485000Y12823966D02*
X14342316D01*
X12485000Y12688966D02*
X14339830D01*
X12485000Y12814966D02*
X14337948D01*
X12485000Y12697966D02*
X14335858D01*
X12485000Y12805966D02*
X14334288D01*
X12485000Y12706966D02*
X14332563D01*
X12485000Y12796966D02*
X14331284D01*
X12485000Y12715966D02*
X14329901D01*
X12485000Y12787966D02*
X14328895D01*
X12485000Y12724966D02*
X14327836D01*
X12485000Y12778966D02*
X14327091D01*
X12485000Y12733966D02*
X14326343D01*
X12485000Y12769966D02*
X14325851D01*
X12346598Y14128966D02*
X14325544D01*
X12485000Y12742966D02*
X14325405D01*
X10674597Y10870966D02*
X14325402D01*
X12485000Y12760966D02*
X14325161D01*
X12485000Y12751966D02*
X14325013D01*
X12344095Y14137966D02*
X14307562D01*
X10692563Y10861966D02*
X14307436D01*
X12340841Y14146966D02*
X14291510D01*
X10708602Y10852966D02*
X14291397D01*
X12336771Y14155966D02*
X14276972D01*
X10723130Y10843966D02*
X14276869D01*
X12331791Y14164966D02*
X14263667D01*
X10736427Y10834966D02*
X14263572D01*
X12325767Y14173966D02*
X14251398D01*
X10748688Y10825966D02*
X14251311D01*
X12318496Y14182966D02*
X14240018D01*
X10760062Y10816966D02*
X14239937D01*
X12309659Y14191966D02*
X14229415D01*
X10770660Y10807966D02*
X14229339D01*
X12298694Y14200966D02*
X14219501D01*
X10780569Y10798966D02*
X14219430D01*
X12284434Y14209966D02*
X14210205D01*
X10789861Y10789966D02*
X14210138D01*
X10793743Y10213966D02*
X14206256D01*
X10793808Y14785966D02*
X14206191D01*
X10796282Y14794966D02*
X14203717D01*
X12263367Y14218966D02*
X14201469D01*
X10798593Y10780966D02*
X14201406D01*
X10802246Y10222966D02*
X14197753D01*
X10802307Y14776966D02*
X14197692D01*
X10806754Y14227966D02*
X14193245D01*
X10806813Y10771966D02*
X14193186D01*
X10810255Y10231966D02*
X14189744D01*
X10810313Y14767966D02*
X14189686D01*
X10814505Y14236966D02*
X14185494D01*
X10814561Y10762966D02*
X14185438D01*
X10817808Y10240966D02*
X14182191D01*
X10817862Y14758966D02*
X14182137D01*
X10821819Y14245966D02*
X14178180D01*
X10821871Y10753966D02*
X14178128D01*
X10824936Y10249966D02*
X14175063D01*
X10824987Y14749966D02*
X14175012D01*
X10828723Y14254966D02*
X14171276D01*
X10828773Y10744966D02*
X14171226D01*
X10831667Y10258966D02*
X14168332D01*
X10831716Y14740966D02*
X14168284D01*
X10835244Y14263966D02*
X14164755D01*
X10835291Y10735966D02*
X14164708D01*
X10838025Y10267966D02*
X14161974D01*
X10838070Y14731966D02*
X14161929D01*
X10841403Y14272966D02*
X14158596D01*
X10841447Y10726966D02*
X14158552D01*
X10844029Y10276966D02*
X14155970D01*
X10844073Y14722966D02*
X14155926D01*
X10847220Y14281966D02*
X14152779D01*
X10847262Y10717966D02*
X14152737D01*
X10849700Y10285966D02*
X14150299D01*
X10849740Y14713966D02*
X14150259D01*
X10852711Y14290966D02*
X14147288D01*
X10852751Y10708966D02*
X14147248D01*
X10855051Y10294966D02*
X14144948D01*
X10855090Y14704966D02*
X14144909D01*
X10857892Y14299966D02*
X14142107D01*
X10857929Y10699966D02*
X14142070D01*
X10860099Y10303966D02*
X14139900D01*
X10860135Y14695966D02*
X14139864D01*
X10862776Y14308966D02*
X14137223D01*
X10862811Y10690966D02*
X14137188D01*
X10864854Y10312966D02*
X14135145D01*
X10864888Y14686966D02*
X14135111D01*
X10867374Y14317966D02*
X14132625D01*
X10867407Y10681966D02*
X14132592D01*
X10869329Y10321966D02*
X14130670D01*
X10869362Y14677966D02*
X14130638D01*
X10871698Y14326966D02*
X14128301D01*
X10871729Y10672966D02*
X14128270D01*
X10873534Y10330966D02*
X14126465D01*
X10873564Y14668966D02*
X14126435D01*
X10875757Y14335966D02*
X14124242D01*
X10875786Y10663966D02*
X14124213D01*
X10877478Y10339966D02*
X14122521D01*
X10877506Y14659966D02*
X14122493D01*
X10879559Y14344966D02*
X14120440D01*
X10879586Y10654966D02*
X14120413D01*
X10881168Y10348966D02*
X14118831D01*
X10881194Y14650966D02*
X14118805D01*
X10883111Y14353966D02*
X14116888D01*
X10883137Y10645966D02*
X14116862D01*
X10884612Y10357966D02*
X14115387D01*
X10884637Y14641966D02*
X14115362D01*
X10886422Y14362966D02*
X14113577D01*
X10886446Y10636966D02*
X14113553D01*
X10887817Y10366966D02*
X14112182D01*
X10887840Y14632966D02*
X14112159D01*
X10889497Y14371966D02*
X14110503D01*
X10889518Y10627966D02*
X14110481D01*
X10890789Y10375966D02*
X14109210D01*
X10890810Y14623966D02*
X14109189D01*
X10892341Y14380966D02*
X14107658D01*
X10892361Y10618966D02*
X14107638D01*
X10893532Y10384966D02*
X14106467D01*
X10893551Y14614966D02*
X14106448D01*
X10894959Y14389966D02*
X14105040D01*
X10894978Y10609966D02*
X14105021D01*
X10896052Y10393966D02*
X14103947D01*
X10896070Y14605966D02*
X14103929D01*
X10897357Y14398966D02*
X14102642D01*
X10897374Y10600966D02*
X14102625D01*
X10898352Y10402966D02*
X14101647D01*
X10898369Y14596966D02*
X14101630D01*
X10899537Y14407966D02*
X14100462D01*
X10899552Y10591966D02*
X14100447D01*
X10900438Y10411966D02*
X14099562D01*
X10900452Y14587966D02*
X14099547D01*
X10901504Y14416966D02*
X14098495D01*
X10901518Y10582966D02*
X14098481D01*
X10902311Y10420966D02*
X14097688D01*
X10902324Y14578966D02*
X14097675D01*
X10903261Y14425966D02*
X14096738D01*
X10903273Y10573966D02*
X14096726D01*
X10903974Y10429966D02*
X14096025D01*
X10903986Y14569966D02*
X14096013D01*
X10904809Y14434966D02*
X14095190D01*
X10904820Y10564966D02*
X14095179D01*
X10905432Y10438966D02*
X14094567D01*
X10905442Y14560966D02*
X14094557D01*
X10906153Y14443966D02*
X14093846D01*
X10906162Y10555966D02*
X14093837D01*
X10906685Y10447966D02*
X14093314D01*
X10906693Y14551966D02*
X14093306D01*
X10907293Y14452966D02*
X14092706D01*
X10907301Y10546966D02*
X14092698D01*
X10907735Y10456966D02*
X14092264D01*
X10907742Y14542966D02*
X14092257D01*
X10908232Y14461966D02*
X14091767D01*
X10908238Y10537966D02*
X14091761D01*
X10908585Y10465966D02*
X14091414D01*
X10908591Y14533966D02*
X14091408D01*
X10908971Y14470966D02*
X14091028D01*
X10908976Y10528966D02*
X14091024D01*
X10909235Y10474966D02*
X14090764D01*
X10909239Y14524966D02*
X14090760D01*
X10909510Y14479966D02*
X14090489D01*
X10909514Y10519966D02*
X14090485D01*
X10909686Y10483966D02*
X14090313D01*
X10909689Y14515966D02*
X14090310D01*
X10909852Y14488966D02*
X14090147D01*
X10909853Y10510966D02*
X14090146D01*
X10909940Y10492966D02*
X14090059D01*
X10909941Y14506966D02*
X14090058D01*
X10909995Y14497966D02*
X14090004D01*
X10909995Y10501966D02*
X14090004D01*
X12485000Y12652966D02*
X13985181D01*
X12485000Y12643966D02*
X13966954D01*
X12485000Y12526966D02*
X13959999D01*
X12485000Y12517966D02*
X13959999D01*
X12485000Y12508966D02*
X13959999D01*
X12485000Y12499966D02*
X13959999D01*
X12485000Y12490966D02*
X13959999D01*
X12485000Y12481966D02*
X13959999D01*
X12485000Y12472966D02*
X13959999D01*
X12485000Y12463966D02*
X13959999D01*
X12485000Y12454966D02*
X13959999D01*
X12485000Y12445966D02*
X13959999D01*
X12485000Y12436966D02*
X13959999D01*
X12485000Y12427966D02*
X13959999D01*
X12485000Y12418966D02*
X13959999D01*
X12485000Y12409966D02*
X13959999D01*
X12485000Y12400966D02*
X13959999D01*
X12485000Y12391966D02*
X13959999D01*
X12485000Y12382966D02*
X13959999D01*
X12485000Y12373966D02*
X13959999D01*
X12485000Y12364966D02*
X13959999D01*
X12485000Y12355966D02*
X13959999D01*
X12485000Y12346966D02*
X13959999D01*
X12485000Y12337966D02*
X13959999D01*
X12485000Y12328966D02*
X13959999D01*
X12485000Y12319966D02*
X13959999D01*
X12485000Y12310966D02*
X13959999D01*
X12485000Y12301966D02*
X13959999D01*
X12485000Y12292966D02*
X13959999D01*
X12485000Y12283966D02*
X13959999D01*
X12485000Y12274966D02*
X13959999D01*
X12485000Y12265966D02*
X13959999D01*
X12485000Y12256966D02*
X13959999D01*
X12485000Y12247966D02*
X13959999D01*
X12485000Y12238966D02*
X13959999D01*
X12485000Y12229966D02*
X13959999D01*
X12485000Y12220966D02*
X13959999D01*
X12485000Y12211966D02*
X13959999D01*
X12485712Y12202966D02*
X13959999D01*
X12488487Y12193966D02*
X13959999D01*
X12491263Y12184966D02*
X13959999D01*
X12494038Y12175966D02*
X13959999D01*
X12794090Y12166966D02*
X13959999D01*
X12812994Y12157966D02*
X13959999D01*
X12826359Y12148966D02*
X13959999D01*
X12836782Y12139966D02*
X13959999D01*
X12845234Y12130966D02*
X13959999D01*
X12852205Y12121966D02*
X13959999D01*
X12857983Y12112966D02*
X13959999D01*
X12862750Y12103966D02*
X13959999D01*
X12866632Y12094966D02*
X13959999D01*
X12869714Y12085966D02*
X13959999D01*
X12872057Y12076966D02*
X13959999D01*
X12873702Y12067966D02*
X13959999D01*
X12874678Y12058966D02*
X13959999D01*
X12875000Y12049966D02*
X13959999D01*
X12874673Y12040966D02*
X13959999D01*
X12873692Y12031966D02*
X13959999D01*
X12872042Y12022966D02*
X13959999D01*
X12869694Y12013966D02*
X13959999D01*
X12866606Y12004966D02*
X13959999D01*
X12862718Y11995966D02*
X13959999D01*
X12857944Y11986966D02*
X13959999D01*
X12852158Y11977966D02*
X13959999D01*
X12845177Y11968966D02*
X13959999D01*
X12836712Y11959966D02*
X13959999D01*
X12826272Y11950966D02*
X13959999D01*
X12812880Y11941966D02*
X13959999D01*
X12793912Y11932966D02*
X13959999D01*
X10205000Y11923966D02*
X13959999D01*
X12485000Y12535966D02*
X13959943D01*
X12071929Y11914966D02*
X13958397D01*
X12485000Y12544966D02*
X13958021D01*
X12485000Y12634966D02*
X13957545D01*
X12485000Y12553966D02*
X13956088D01*
X12485000Y12562966D02*
X13954155D01*
X12485000Y12571966D02*
X13952223D01*
X12485000Y12625966D02*
X13951515D01*
X12100201Y11905966D02*
X13949397D01*
X12485000Y12580966D02*
X13948397D01*
X12485000Y12616966D02*
X13947681D01*
X12485000Y12589966D02*
X13945922D01*
X12485000Y12607966D02*
X13945579D01*
X12485000Y12598966D02*
X13945009D01*
X12110725Y11896966D02*
X13940397D01*
X12117359Y11887966D02*
X13931397D01*
X12121626Y11878966D02*
X13922397D01*
X12126188Y11869966D02*
X13913397D01*
X12132006Y11860966D02*
X13904397D01*
X12137824Y11851966D02*
X13895397D01*
X12143662Y11842966D02*
X13886397D01*
X12152602Y11833966D02*
X13877397D01*
X12161602Y11824966D02*
X13868397D01*
X12170602Y11815966D02*
X13859397D01*
X12179602Y11806966D02*
X13850397D01*
X12188602Y11797966D02*
X13841397D01*
X12197602Y11788966D02*
X13832397D01*
X12206602Y11779966D02*
X13823397D01*
X12215602Y11770966D02*
X13814397D01*
X12224602Y11761966D02*
X13805397D01*
X12233602Y11752966D02*
X13796397D01*
X12242602Y11743966D02*
X13787397D01*
X12251602Y11734966D02*
X13778397D01*
X12260602Y11725966D02*
X13769397D01*
X12269602Y11716966D02*
X13760397D01*
X12278602Y11707966D02*
X13751397D01*
X12473420Y12877966D02*
X13572926D01*
X12844673Y13120966D02*
X13568500D01*
X12467420Y12886966D02*
X13546627D01*
X12843692Y13111966D02*
X13544424D01*
X12461420Y12895966D02*
X13530702D01*
X12842042Y13102966D02*
X13529126D01*
X12455420Y12904966D02*
X13518797D01*
X12839694Y13093966D02*
X13517565D01*
X12449420Y12913966D02*
X13509317D01*
X12836606Y13084966D02*
X13508316D01*
X12443420Y12922966D02*
X13501557D01*
X12832718Y13075966D02*
X13500731D01*
X12437420Y12931966D02*
X13495135D01*
X12827944Y13066966D02*
X13494450D01*
X12431420Y12940966D02*
X13489817D01*
X12822158Y13057966D02*
X13489252D01*
X12425420Y12949966D02*
X13485449D01*
X12815177Y13048966D02*
X13484989D01*
X12419420Y12958966D02*
X13481926D01*
X12806712Y13039966D02*
X13481561D01*
X12413420Y12967966D02*
X13479173D01*
X12796272Y13030966D02*
X13478895D01*
X12407420Y12976966D02*
X13477139D01*
X12782880Y13021966D02*
X13476944D01*
X12401420Y12985966D02*
X13475789D01*
X12763912Y13012966D02*
X13475673D01*
X12395420Y12994966D02*
X13475100D01*
X12389420Y13003966D02*
X13475062D01*
X10205000Y11932966D02*
X12706087D01*
X12497936Y12166966D02*
X12705909D01*
X10205000Y11941966D02*
X12687119D01*
X12501983Y12157966D02*
X12687005D01*
X12383420Y13012966D02*
X12676087D01*
X10205000Y13246966D02*
X12675909D01*
X10205000Y11950966D02*
X12673727D01*
X12504264Y12148966D02*
X12673640D01*
X10205000Y11959966D02*
X12663287D01*
X12505000Y12139966D02*
X12663217D01*
X12377248Y13021966D02*
X12657119D01*
X10205000Y13237966D02*
X12657005D01*
X10205000Y11968966D02*
X12654822D01*
X12504253Y12130966D02*
X12654765D01*
X10205000Y11977966D02*
X12647841D01*
X12501960Y12121966D02*
X12647794D01*
X12366312Y13030966D02*
X12643727D01*
X10205000Y13228966D02*
X12643640D01*
X10205000Y11986966D02*
X12642055D01*
X12497898Y12112966D02*
X12642017D01*
X10205000Y11995966D02*
X12637281D01*
X12491553Y12103966D02*
X12637249D01*
X10205000Y12004966D02*
X12633393D01*
X12481576Y12094966D02*
X12633367D01*
X11797124Y13039966D02*
X12633287D01*
X10205000Y13219966D02*
X12633217D01*
X10205000Y12013966D02*
X12630305D01*
X12460269Y12085966D02*
X12630285D01*
X10205000Y12022966D02*
X12627957D01*
X10205000Y12076966D02*
X12627942D01*
X10205000Y12031966D02*
X12626307D01*
X10205000Y12067966D02*
X12626297D01*
X10205000Y12040966D02*
X12625326D01*
X10205000Y12058966D02*
X12625321D01*
X10205000Y12049966D02*
X12624999D01*
X11777840Y13048966D02*
X12624822D01*
X10205000Y13210966D02*
X12624765D01*
X11758556Y13057966D02*
X12617841D01*
X10205000Y13201966D02*
X12617794D01*
X11739271Y13066966D02*
X12612055D01*
X10205000Y13192966D02*
X12612017D01*
X11719987Y13075966D02*
X12607281D01*
X10205000Y13183966D02*
X12607249D01*
X11700703Y13084966D02*
X12603393D01*
X10205000Y13174966D02*
X12603367D01*
X11682434Y13093966D02*
X12600305D01*
X10205000Y13165966D02*
X12600285D01*
X11670873Y13102966D02*
X12597957D01*
X10205000Y13156966D02*
X12597942D01*
X11655575Y13111966D02*
X12596307D01*
X10205000Y13147966D02*
X12596297D01*
X11631499Y13120966D02*
X12595326D01*
X10205000Y13138966D02*
X12595321D01*
X10205000Y13129966D02*
X12594999D01*
X10205000Y12085966D02*
X12439730D01*
X10205000Y12094966D02*
X12418423D01*
X10673518Y12832966D02*
X12414999D01*
X10671963Y12823966D02*
X12414999D01*
X10669832Y12814966D02*
X12414999D01*
X10667101Y12805966D02*
X12414999D01*
X10663734Y12796966D02*
X12414999D01*
X10659683Y12787966D02*
X12414999D01*
X10654885Y12778966D02*
X12414999D01*
X10649252Y12769966D02*
X12414999D01*
X10642664Y12760966D02*
X12414999D01*
X10634951Y12751966D02*
X12414999D01*
X10625855Y12742966D02*
X12414999D01*
X10614956Y12733966D02*
X12414999D01*
X10601488Y12724966D02*
X12414999D01*
X10583710Y12715966D02*
X12414999D01*
X10554687Y12706966D02*
X12414999D01*
X10205000Y12697966D02*
X12414999D01*
X10205000Y12688966D02*
X12414999D01*
X10205000Y12679966D02*
X12414999D01*
X10205000Y12670966D02*
X12414999D01*
X10205000Y12661966D02*
X12414999D01*
X10205000Y12652966D02*
X12414999D01*
X10205000Y12643966D02*
X12414999D01*
X10205000Y12634966D02*
X12414999D01*
X10205000Y12625966D02*
X12414999D01*
X10205000Y12616966D02*
X12414999D01*
X10205000Y12607966D02*
X12414999D01*
X10205000Y12598966D02*
X12414999D01*
X10205000Y12589966D02*
X12414999D01*
X10205000Y12580966D02*
X12414999D01*
X10205000Y12571966D02*
X12414999D01*
X10205000Y12562966D02*
X12414999D01*
X10205000Y12553966D02*
X12414999D01*
X10205000Y12544966D02*
X12414999D01*
X10205000Y12535966D02*
X12414999D01*
X10205000Y12526966D02*
X12414999D01*
X10205000Y12517966D02*
X12414999D01*
X10205000Y12508966D02*
X12414999D01*
X10205000Y12499966D02*
X12414999D01*
X10205000Y12490966D02*
X12414999D01*
X10205000Y12481966D02*
X12414999D01*
X10205000Y12472966D02*
X12414999D01*
X10205000Y12463966D02*
X12414999D01*
X10205000Y12454966D02*
X12414999D01*
X10205000Y12445966D02*
X12414999D01*
X10205000Y12436966D02*
X12414999D01*
X10205000Y12427966D02*
X12414999D01*
X10205000Y12418966D02*
X12414999D01*
X10205000Y12409966D02*
X12414999D01*
X10205000Y12400966D02*
X12414999D01*
X10205000Y12391966D02*
X12414999D01*
X10205000Y12382966D02*
X12414999D01*
X10205000Y12373966D02*
X12414999D01*
X10205000Y12364966D02*
X12414999D01*
X10205000Y12355966D02*
X12414999D01*
X10205000Y12346966D02*
X12414999D01*
X10205000Y12337966D02*
X12414999D01*
X10205000Y12328966D02*
X12414999D01*
X10205000Y12319966D02*
X12414999D01*
X10205000Y12310966D02*
X12414999D01*
X10205000Y12301966D02*
X12414999D01*
X10205000Y12292966D02*
X12414999D01*
X10205000Y12283966D02*
X12414999D01*
X10205000Y12274966D02*
X12414999D01*
X10205000Y12265966D02*
X12414999D01*
X10205000Y12256966D02*
X12414999D01*
X10205000Y12247966D02*
X12414999D01*
X10205000Y12238966D02*
X12414999D01*
X10205000Y12229966D02*
X12414999D01*
X10205000Y12220966D02*
X12414999D01*
X10205000Y12211966D02*
X12414999D01*
X10205000Y12202966D02*
X12414287D01*
X10674517Y12841966D02*
X12413290D01*
X10205000Y12193966D02*
X12411512D01*
X10205000Y12184966D02*
X12408736D01*
X10205000Y12103966D02*
X12408446D01*
X10674969Y12850966D02*
X12407290D01*
X10205000Y12175966D02*
X12405961D01*
X10205000Y12112966D02*
X12402101D01*
X10205000Y12166966D02*
X12402064D01*
X10674881Y12859966D02*
X12401290D01*
X10205000Y12121966D02*
X12398039D01*
X10205000Y12157966D02*
X12398016D01*
X10205000Y12130966D02*
X12395746D01*
X10205000Y12148966D02*
X12395735D01*
X10674252Y12868966D02*
X12395290D01*
X10205000Y12139966D02*
X12394999D01*
X11627073Y12877966D02*
X12389290D01*
X11653372Y12886966D02*
X12383290D01*
X11669297Y12895966D02*
X12377290D01*
X11681202Y12904966D02*
X12371290D01*
X11698417Y12913966D02*
X12365290D01*
X11717701Y12922966D02*
X12359290D01*
X11736986Y12931966D02*
X12353290D01*
X11756270Y12940966D02*
X12347290D01*
X11775554Y12949966D02*
X12341290D01*
X11794838Y12958966D02*
X12335290D01*
X12051445Y11626966D02*
X12247442D01*
X12057353Y11635966D02*
X12237464D01*
X12062234Y11644966D02*
X12228464D01*
X12066215Y11653966D02*
X12219464D01*
X12069388Y11662966D02*
X12210464D01*
X10205000Y13975966D02*
X12209480D01*
X12071816Y11671966D02*
X12201464D01*
X12073543Y11680966D02*
X12192464D01*
X10798530Y14218966D02*
X12186632D01*
X12074597Y11689966D02*
X12183464D01*
X10205000Y13984966D02*
X12176087D01*
X12074996Y11698966D02*
X12174464D01*
X11183652Y14209966D02*
X12165565D01*
X12074746Y11707966D02*
X12165464D01*
X11194520Y13993966D02*
X12158802D01*
X12073843Y11716966D02*
X12156464D01*
X11205053Y14200966D02*
X12151305D01*
X12072273Y11725966D02*
X12147464D01*
X11211722Y14002966D02*
X12146198D01*
X11219045Y14191966D02*
X12140340D01*
X12070010Y11734966D02*
X12138464D01*
X11223994Y14011966D02*
X12136257D01*
X11229634Y14182966D02*
X12131503D01*
X12067013Y11743966D02*
X12129464D01*
X11233539Y14020966D02*
X12128155D01*
X11238057Y14173966D02*
X12124232D01*
X11241216Y14029966D02*
X12121460D01*
X12063223Y11752966D02*
X12120464D01*
X11244891Y14164966D02*
X12118208D01*
X11247468Y14038966D02*
X12115912D01*
X11250463Y14155966D02*
X12113228D01*
X12058559Y11761966D02*
X12111464D01*
X11252555Y14047966D02*
X12111344D01*
X11254972Y14146966D02*
X12109158D01*
X11256645Y14056966D02*
X12107640D01*
X11258552Y14137966D02*
X12105904D01*
X11259849Y14065966D02*
X12104721D01*
X11261292Y14128966D02*
X12103402D01*
X11262242Y14074966D02*
X12102531D01*
X12052902Y11770966D02*
X12102464D01*
X11263253Y14119966D02*
X12101604D01*
X11263877Y14083966D02*
X12101032D01*
X11264476Y14110966D02*
X12100481D01*
X11264785Y14092966D02*
X12100197D01*
X11264983Y14101966D02*
X12100014D01*
X12046075Y11779966D02*
X12093464D01*
X12037807Y11788966D02*
X12082998D01*
X12027638Y11797966D02*
X12069076D01*
X10205000Y11914966D02*
X12068070D01*
X12014678Y11806966D02*
X12055101D01*
X10205000Y11905966D02*
X12039798D01*
X11996656Y11815966D02*
X12037043D01*
X10205000Y11896966D02*
X12029275D01*
X11952909Y11824966D02*
X12027600D01*
X10205000Y11887966D02*
X12022640D01*
X10205000Y11833966D02*
X12021550D01*
X10205000Y11878966D02*
X12018373D01*
X10205000Y11842966D02*
X12017703D01*
X10205000Y11869966D02*
X12015910D01*
X10205000Y11851966D02*
X12015589D01*
X10205000Y11860966D02*
X12015007D01*
X10205000Y11824966D02*
X11947090D01*
X10205000Y11581966D02*
X11908850D01*
X10205000Y11815966D02*
X11903343D01*
X10205000Y11590966D02*
X11888870D01*
X10205000Y11806966D02*
X11885321D01*
X10205000Y11599966D02*
X11875043D01*
X10205000Y11797966D02*
X11872361D01*
X10205000Y11608966D02*
X11864337D01*
X10205000Y11788966D02*
X11862193D01*
X10205000Y11617966D02*
X11855683D01*
X10205000Y11779966D02*
X11853924D01*
X10205000Y11626966D02*
X11848554D01*
X10205000Y11770966D02*
X11847097D01*
X10205000Y11635966D02*
X11842646D01*
X10205000Y11761966D02*
X11841440D01*
X10205000Y11644966D02*
X11837766D01*
X10205000Y11752966D02*
X11836776D01*
X10205000Y11653966D02*
X11833784D01*
X10205000Y11743966D02*
X11832986D01*
X10205000Y11662966D02*
X11830611D01*
X10205000Y11734966D02*
X11829989D01*
X10205000Y11671966D02*
X11828183D01*
X10205000Y11725966D02*
X11827726D01*
X10205000Y11680966D02*
X11826457D01*
X10205000Y11716966D02*
X11826156D01*
X10205000Y11689966D02*
X11825402D01*
X10205000Y11707966D02*
X11825253D01*
X10205000Y11698966D02*
X11825003D01*
X10673073Y12877966D02*
X11572926D01*
X10205000Y13120966D02*
X11568500D01*
X10671333Y12886966D02*
X11546627D01*
X10205000Y13111966D02*
X11544424D01*
X10669010Y12895966D02*
X11530702D01*
X10205000Y13102966D02*
X11529126D01*
X10666076Y12904966D02*
X11518797D01*
X10205000Y13093966D02*
X11517565D01*
X10662492Y12913966D02*
X11509317D01*
X10205000Y13084966D02*
X11508316D01*
X10658205Y12922966D02*
X11501557D01*
X10205000Y13075966D02*
X11500731D01*
X10653145Y12931966D02*
X11495135D01*
X10205000Y13066966D02*
X11494450D01*
X10647216Y12940966D02*
X11489817D01*
X10205000Y13057966D02*
X11489252D01*
X10640284Y12949966D02*
X11485449D01*
X10205000Y13048966D02*
X11484989D01*
X10632154Y12958966D02*
X11481926D01*
X10205000Y13039966D02*
X11481561D01*
X10622528Y12967966D02*
X11479173D01*
X10205000Y13030966D02*
X11478895D01*
X10610903Y12976966D02*
X11477139D01*
X10205000Y13021966D02*
X11476944D01*
X10596308Y12985966D02*
X11475789D01*
X10205000Y13012966D02*
X11475673D01*
X10576269Y12994966D02*
X11475100D01*
X10528187Y13003966D02*
X11475062D01*
X10789794Y14209966D02*
X11116348D01*
X10205000Y13741966D02*
X11110580D01*
X10205000Y13957966D02*
X11110397D01*
X10205000Y13993966D02*
X11105479D01*
X10780498Y14200966D02*
X11094946D01*
X10205000Y13750966D02*
X11091540D01*
X10205000Y13948966D02*
X11091427D01*
X10205000Y14002966D02*
X11088277D01*
X10770584Y14191966D02*
X11080954D01*
X10205000Y13759966D02*
X11078451D01*
X10205000Y13939966D02*
X11078368D01*
X10205000Y14011966D02*
X11076005D01*
X10759981Y14182966D02*
X11070365D01*
X10205000Y13768966D02*
X11068399D01*
X10205000Y13930966D02*
X11068332D01*
X10205000Y14020966D02*
X11066460D01*
X10748601Y14173966D02*
X11061942D01*
X10205000Y13777966D02*
X11060354D01*
X10205000Y13921966D02*
X11060300D01*
X10205000Y14029966D02*
X11058783D01*
X10736332Y14164966D02*
X11055108D01*
X10205000Y13786966D02*
X11053813D01*
X10205000Y13912966D02*
X11053769D01*
X10205000Y14038966D02*
X11052531D01*
X10723028Y14155966D02*
X11049536D01*
X10205000Y13795966D02*
X11048483D01*
X10205000Y13903966D02*
X11048448D01*
X10205000Y14047966D02*
X11047444D01*
X10708489Y14146966D02*
X11045027D01*
X10205000Y13804966D02*
X11044183D01*
X10205000Y13894966D02*
X11044155D01*
X10205000Y14056966D02*
X11043354D01*
X10692437Y14137966D02*
X11041447D01*
X10205000Y13813966D02*
X11040790D01*
X10205000Y13885966D02*
X11040768D01*
X10205000Y14065966D02*
X11040150D01*
X10674455Y14128966D02*
X11038707D01*
X10205000Y13822966D02*
X11038222D01*
X10205000Y13876966D02*
X11038205D01*
X10205000Y14074966D02*
X11037757D01*
X10653867Y14119966D02*
X11036746D01*
X10205000Y13831966D02*
X11036422D01*
X10205000Y13867966D02*
X11036411D01*
X10205000Y14083966D02*
X11036122D01*
X10629435Y14110966D02*
X11035523D01*
X10205000Y13840966D02*
X11035354D01*
X10205000Y13858966D02*
X11035349D01*
X10549237Y14092966D02*
X11035214D01*
X10598335Y14101966D02*
X11035016D01*
X10205000Y13849966D02*
X11034999D01*
X10205000Y13003966D02*
X10471812D01*
X10205000Y14092966D02*
X10450762D01*
X10205000Y10906966D02*
X10450214D01*
X10205000Y12706966D02*
X10445312D01*
X10205000Y12994966D02*
X10423730D01*
X10205000Y12715966D02*
X10416289D01*
X10205000Y12985966D02*
X10403691D01*
X10205000Y14101966D02*
X10401664D01*
X10205000Y10897966D02*
X10401394D01*
X10205000Y12724966D02*
X10398511D01*
X10205000Y12976966D02*
X10389096D01*
X10205000Y12733966D02*
X10385043D01*
X10205000Y12967966D02*
X10377471D01*
X10205000Y12742966D02*
X10374144D01*
X10205000Y14110966D02*
X10370564D01*
X10205000Y10888966D02*
X10370364D01*
X10205000Y12958966D02*
X10367845D01*
X10205000Y12751966D02*
X10365048D01*
X10205000Y12949966D02*
X10359715D01*
X10205000Y12760966D02*
X10357335D01*
X10205000Y12940966D02*
X10352783D01*
X10205000Y12769966D02*
X10350748D01*
X10205000Y12931966D02*
X10346854D01*
X10205000Y14119966D02*
X10346132D01*
X10205000Y10879966D02*
X10345968D01*
X10205000Y12778966D02*
X10345114D01*
X10205000Y12922966D02*
X10341794D01*
X10205000Y12787966D02*
X10340316D01*
X10205000Y12913966D02*
X10337507D01*
X10205000Y12796966D02*
X10336265D01*
X10205000Y12904966D02*
X10333923D01*
X10205000Y12805966D02*
X10332898D01*
X10205000Y12895966D02*
X10330989D01*
X10205000Y12814966D02*
X10330167D01*
X10205000Y12886966D02*
X10328666D01*
X10205000Y12823966D02*
X10328036D01*
X10205000Y12877966D02*
X10326926D01*
X10205000Y12832966D02*
X10326481D01*
X10205000Y12868966D02*
X10325748D01*
X10205000Y14128966D02*
X10325544D01*
X10205000Y12841966D02*
X10325482D01*
X10205000Y10870966D02*
X10325402D01*
X10205000Y12859966D02*
X10325118D01*
X10205000Y12850966D02*
X10325030D01*
X10205000Y14137966D02*
X10307562D01*
X10205000Y10861966D02*
X10307436D01*
X10205000Y14146966D02*
X10291510D01*
X10205000Y10852966D02*
X10291397D01*
X10205000Y14155966D02*
X10276972D01*
X10205000Y10843966D02*
X10276869D01*
X10205000Y14164966D02*
X10263667D01*
X10205000Y10834966D02*
X10263572D01*
X10205000Y14173966D02*
X10251398D01*
X10205000Y10825966D02*
X10251311D01*
X10205000Y14182966D02*
X10240018D01*
X10205000Y10816966D02*
X10239937D01*
X10205000Y14191966D02*
X10229415D01*
X10205000Y10807966D02*
X10229339D01*
X10205000Y14200966D02*
X10219501D01*
X10205000Y10798966D02*
X10219430D01*
G54D22*
X11600000Y13000000D03*
Y12200000D03*
X13600000Y13000000D03*
Y12100000D03*
X12225000Y14100000D03*
X12720000Y13130000D03*
X11950000Y11700000D03*
X12750000Y12050000D03*
G54D23*
X14000000Y12540000D02*
X14010606Y12589393D01*
X14010606D02*
X14000000Y12555000D01*
X13989393Y12589393*
X13989393D02*
X14000000Y12540000D01*
X13997852Y12550000D02*
X14002147D01*
X13991410Y12580000D02*
X13992290D01*
X14007709D02*
X14008589D01*
X13990000Y12586568D02*
Y12587426D01*
X12112426Y11817573D02*
X12085000Y11860000D01*
X12101819Y11828180*
X12101819D02*
X12070000Y11845000D01*
X12112426Y11817573*
X12093203Y11830000D02*
X12098377D01*
X12100857D02*
X12104393D01*
X12085000Y11860000D02*
X12085000D01*
X12100000Y11825606D02*
Y11829142D01*
Y11831622D02*
Y11836796D01*
X12270000Y11660000D02*
X13760000D01*
X14000000Y11900000*
Y12600000*
X12270000Y11660000D02*
X12070000Y11860000D01*
G54D49*
X10500000Y12854000D03*
Y12346000D03*
X14500000Y12246000D03*
Y12754000D03*
G74*
X0Y0D02*
M02*
