*
*
G04 PADS Layout (Build Number 2004.211.1) generated Gerber (RS-274-X) file*
G04 PC Version=2.1*
*
%IN "BD9A300MUV-EVK-004.pcb"*%
*
%MOMM*%
*
%FSLAX35Y35*%
*
*
*
*
G04 PC Standard Apertures*
*
*
G04 Thermal Relief Aperture macro.*
%AMTER*
1,1,$1,0,0*
1,0,$1-$2,0,0*
21,0,$3,$4,0,0,45*
21,0,$3,$4,0,0,135*
%
*
*
G04 Annular Aperture macro.*
%AMANN*
1,1,$1,0,0*
1,0,$2,0,0*
%
*
*
G04 Odd Aperture macro.*
%AMODD*
1,1,$1,0,0*
1,0,$1-0.005,0,0*
%
*
*
G04 PC Custom Aperture Macros*
*
*
*
*
*
*
G04 PC Aperture Table*
*
%ADD014C,1.8*%
%ADD016C,1.6*%
%ADD017C,3.3*%
%ADD018C,0.15*%
%ADD019C,0.2*%
%ADD020C,0.6*%
%ADD022C,2*%
*
*
*
*
G04 PC Custom Flashes*
G04 Layer Name BD9A300MUV-EVK-004.pcb - flashes*
%LPD*%
*
*
G04 PC Circuitry*
G04 Layer Name BD9A300MUV-EVK-004.pcb - circuitry*
%LPD*%
*
G54D14*
G01X11150000Y14100000D03*
Y13850000D03*
Y13600000D03*
G54D16*
X11600000Y13000000D03*
Y12200000D03*
X13600000Y13000000D03*
Y12100000D03*
X12225000Y14100000D03*
X12720000Y13130000D03*
X11950000Y11700000D03*
X12750000Y12050000D03*
G54D17*
X10500000Y10500000D03*
X14500000D03*
X10500000Y14500000D03*
X14500000D03*
G54D18*
X14627500Y12754000D02*
G75*
G03X14627500I-127500D01*
G01X14057500Y12600000D02*
G03X14057500I-57500D01*
G01X13707500Y13000000D02*
G03X13707500I-107500D01*
G01X12857500Y12050000D02*
G03X12857500I-107500D01*
G01X12827500Y13130000D02*
G03X12827500I-107500D01*
G01X12507500Y12140000D02*
G03X12507500I-57500D01*
G01X12057500Y11700000D02*
G03X12057500I-107500D01*
G01X12127500Y11860000D02*
G03X12127500I-57500D01*
G01X12332500Y14100000D02*
G03X12332500I-107500D01*
G01X11707500Y13000000D02*
G03X11707500I-107500D01*
G01X10627500Y12854000D02*
G03X10627500I-127500D01*
G01X14792500Y10811900D02*
Y14188099D01*
X14792500D02*
G03X14779940Y14193636I-7500J0D01*
G01X14193636Y14779940D02*
G03X14779940Y14193636I306364J-279940D01*
G01X14193636Y14779940D02*
G03X14188099Y14792499I-5536J5060D01*
G01Y14792500D02*
X10811900D01*
G03X10806363Y14779940I0J-7500*
G01X10220059Y14193636D02*
G03X10806363Y14779940I279941J306364D01*
G01X10220059Y14193636D02*
G03X10207500Y14188099I-5059J-5536D01*
G01X10207500D02*
Y10811900D01*
G03X10220059Y10806363I7500J0*
G01X10806363Y10220059D02*
G03X10220059Y10806363I-306363J279941D01*
G01X10806363Y10220059D02*
G03X10811900Y10207500I5537J-5059D01*
G01X14188099*
X14188099D02*
G03X14193636Y10220059I0J7500D01*
G01X14779940Y10806363D02*
G03X14193636Y10220059I-279940J-306363D01*
G01X14779940Y10806363D02*
G03X14792499Y10811900I5060J5537D01*
G01X14627500Y12754000D02*
G03X14627500I-127500D01*
G01X14057500Y12600000D02*
G03X14057500I-57500D01*
G01X13707500Y13000000D02*
G03X13707500I-107500D01*
G01X12857500Y12050000D02*
G03X12857500I-107500D01*
G01X12827500Y13130000D02*
G03X12827500I-107500D01*
G01X12507500Y12140000D02*
G03X12507500I-57500D01*
G01X12057500Y11700000D02*
G03X12057500I-107500D01*
G01X12127500Y11860000D02*
G03X12127500I-57500D01*
G01X12332500Y14100000D02*
G03X12332500I-107500D01*
G01X11707500Y13000000D02*
G03X11707500I-107500D01*
G01X11149656Y13967499D02*
G03X11150343I344J-117499D01*
G01X11149656Y13967500D02*
G03X11149999Y13967508I-21J7500D01*
G01X11150000D02*
G03X11150343Y13967500I365J7492D01*
G01Y13982500D02*
G03X11149656I-343J117500D01*
G01X11150343Y13982499D02*
G03X11150000Y13982491I22J-7499D01*
X11149656Y13982499I-365J-7491*
G01X10627500Y12854000D02*
G03X10627500I-127500D01*
G01X14759906Y14176466D02*
X14792500D01*
X14742144Y14162966D02*
X14792500D01*
X14722152Y14149466D02*
X14792500D01*
X14699261Y14135966D02*
X14792500D01*
X14672319Y14122466D02*
X14792500D01*
X14638990Y14108966D02*
X14792500D01*
X14592618Y14095466D02*
X14792500D01*
X12330977Y14081966D02*
X14792500D01*
X12327771Y14068466D02*
X14792500D01*
X12322613Y14054966D02*
X14792500D01*
X12315167Y14041466D02*
X14792500D01*
X12304797Y14027966D02*
X14792500D01*
X12290118Y14014466D02*
X14792500D01*
X12266818Y14000966D02*
X14792500D01*
X11183802Y13987466D02*
X14792500D01*
X10207500Y13973966D02*
X14792500D01*
X11190043Y13960466D02*
X14792500D01*
X11216361Y13946966D02*
X14792500D01*
X11232702Y13933466D02*
X14792500D01*
X11244398Y13919966D02*
X14792500D01*
X11253043Y13906466D02*
X14792500D01*
X11259362Y13892966D02*
X14792500D01*
X11263745Y13879466D02*
X14792500D01*
X11266410Y13865966D02*
X14792500D01*
X11267474Y13852466D02*
X14792500D01*
X11266981Y13838966D02*
X14792500D01*
X11264910Y13825466D02*
X14792500D01*
X11261174Y13811966D02*
X14792500D01*
X11255596Y13798466D02*
X14792500D01*
X11247862Y13784966D02*
X14792500D01*
X11237400Y13771466D02*
X14792500D01*
X11223049Y13757966D02*
X14792500D01*
X11201663Y13744466D02*
X14792500D01*
X10207500Y13730966D02*
X14792500D01*
X10207500Y13717466D02*
X14792500D01*
X10207500Y13703966D02*
X14792500D01*
X10207500Y13690466D02*
X14792500D01*
X10207500Y13676966D02*
X14792500D01*
X10207500Y13663466D02*
X14792500D01*
X10207500Y13649966D02*
X14792500D01*
X10207500Y13636466D02*
X14792500D01*
X10207500Y13622966D02*
X14792500D01*
X10207500Y13609466D02*
X14792500D01*
X10207500Y13595966D02*
X14792500D01*
X10207500Y13582466D02*
X14792500D01*
X10207500Y13568966D02*
X14792500D01*
X10207500Y13555466D02*
X14792500D01*
X10207500Y13541966D02*
X14792500D01*
X10207500Y13528466D02*
X14792500D01*
X10207500Y13514966D02*
X14792500D01*
X10207500Y13501466D02*
X14792500D01*
X10207500Y13487966D02*
X14792500D01*
X10207500Y13474466D02*
X14792500D01*
X10207500Y13460966D02*
X14792500D01*
X10207500Y13447466D02*
X14792500D01*
X10207500Y13433966D02*
X14792500D01*
X10207500Y13420466D02*
X14792500D01*
X10207500Y13406966D02*
X14792500D01*
X10207500Y13393466D02*
X14792500D01*
X10207500Y13379966D02*
X14792500D01*
X10207500Y13366466D02*
X14792500D01*
X10207500Y13352966D02*
X14792500D01*
X10207500Y13339466D02*
X14792500D01*
X10207500Y13325966D02*
X14792500D01*
X10207500Y13312466D02*
X14792500D01*
X10207500Y13298966D02*
X14792500D01*
X10207500Y13285466D02*
X14792500D01*
X10207500Y13271966D02*
X14792500D01*
X10207500Y13258466D02*
X14792500D01*
X10207500Y13244966D02*
X14792500D01*
X12755508Y13231466D02*
X14792500D01*
X12781791Y13217966D02*
X14792500D01*
X12797531Y13204466D02*
X14792500D01*
X12808540Y13190966D02*
X14792500D01*
X12816453Y13177466D02*
X14792500D01*
X12821993Y13163966D02*
X14792500D01*
X12825534Y13150466D02*
X14792500D01*
X12827274Y13136966D02*
X14792500D01*
X12827301Y13123466D02*
X14792500D01*
X12825617Y13109966D02*
X14792500D01*
X13647439Y13096466D02*
X14792500D01*
X13668358Y13082966D02*
X14792500D01*
X13682041Y13069466D02*
X14792500D01*
X13691782Y13055966D02*
X14792500D01*
X13698757Y13042466D02*
X14792500D01*
X13703524Y13028966D02*
X14792500D01*
X13706382Y13015466D02*
X14792500D01*
X13707482Y13001966D02*
X14792500D01*
X13706880Y12988466D02*
X14792500D01*
X13704545Y12974966D02*
X14792500D01*
X13700357Y12961466D02*
X14792500D01*
X13694068Y12947966D02*
X14792500D01*
X13685215Y12934466D02*
X14792500D01*
X13672870Y12920966D02*
X14792500D01*
X13654717Y12907466D02*
X14792500D01*
X13617700Y12893966D02*
X14792500D01*
X14516203Y12880466D02*
X14792500D01*
X14559117Y12866966D02*
X14792500D01*
X14579766Y12853466D02*
X14792500D01*
X14594160Y12839966D02*
X14792500D01*
X14604904Y12826466D02*
X14792500D01*
X14613045Y12812966D02*
X14792500D01*
X14619118Y12799466D02*
X14792500D01*
X14623428Y12785966D02*
X14792500D01*
X14626156Y12772466D02*
X14792500D01*
X14627403Y12758966D02*
X14792500D01*
X14627214Y12745466D02*
X14792500D01*
X14625582Y12731966D02*
X14792500D01*
X14622449Y12718466D02*
X14792500D01*
X14617695Y12704966D02*
X14792500D01*
X14611112Y12691466D02*
X14792500D01*
X14602349Y12677966D02*
X14792500D01*
X14590775Y12664466D02*
X14792500D01*
X14575103Y12650966D02*
X14792500D01*
X14551733Y12637466D02*
X14792500D01*
X14052267Y12623966D02*
X14792500D01*
X14056539Y12610466D02*
X14792500D01*
X14057420Y12596966D02*
X14792500D01*
X14055072Y12583466D02*
X14792500D01*
X14049033Y12569966D02*
X14792500D01*
X14037565Y12556466D02*
X14792500D01*
X14007315Y12542966D02*
X14792500D01*
X10207500Y12529466D02*
X14792500D01*
X10207500Y12515966D02*
X14792500D01*
X10207500Y12502466D02*
X14792500D01*
X10207500Y12488966D02*
X14792500D01*
X10207500Y12475466D02*
X14792500D01*
X10207500Y12461966D02*
X14792500D01*
X10207500Y12448466D02*
X14792500D01*
X10207500Y12434966D02*
X14792500D01*
X10207500Y12421466D02*
X14792500D01*
X10207500Y12407966D02*
X14792500D01*
X10207500Y12394466D02*
X14792500D01*
X10207500Y12380966D02*
X14792500D01*
X10207500Y12367466D02*
X14792500D01*
X10207500Y12353966D02*
X14792500D01*
X10207500Y12340466D02*
X14792500D01*
X10207500Y12326966D02*
X14792500D01*
X10207500Y12313466D02*
X14792500D01*
X10207500Y12299966D02*
X14792500D01*
X10207500Y12286466D02*
X14792500D01*
X10207500Y12272966D02*
X14792500D01*
X10207500Y12259466D02*
X14792500D01*
X10207500Y12245966D02*
X14792500D01*
X10207500Y12232466D02*
X14792500D01*
X10207500Y12218966D02*
X14792500D01*
X10207500Y12205466D02*
X14792500D01*
X12474612Y12191966D02*
X14792500D01*
X12492739Y12178466D02*
X14792500D01*
X12501797Y12164966D02*
X14792500D01*
X12785508Y12151466D02*
X14792500D01*
X12811791Y12137966D02*
X14792500D01*
X12827531Y12124466D02*
X14792500D01*
X12838540Y12110966D02*
X14792500D01*
X12846453Y12097466D02*
X14792500D01*
X12851993Y12083966D02*
X14792500D01*
X12855534Y12070466D02*
X14792500D01*
X12857274Y12056966D02*
X14792500D01*
X12857301Y12043466D02*
X14792500D01*
X12855617Y12029966D02*
X14792500D01*
X12852136Y12016466D02*
X14792500D01*
X12846665Y12002966D02*
X14792500D01*
X12838837Y11989466D02*
X14792500D01*
X12827945Y11975966D02*
X14792500D01*
X12812404Y11962466D02*
X14792500D01*
X12786723Y11948966D02*
X14792500D01*
X10207500Y11935466D02*
X14792500D01*
X10207500Y11921966D02*
X14792500D01*
X12100940Y11908466D02*
X14792500D01*
X12115646Y11894966D02*
X14792500D01*
X12123343Y11881466D02*
X14792500D01*
X12126946Y11867966D02*
X14792500D01*
X12127233Y11854466D02*
X14792500D01*
X12124259Y11840966D02*
X14792500D01*
X12117411Y11827466D02*
X14792500D01*
X12104456Y11813966D02*
X14792500D01*
X11988246Y11800466D02*
X14792500D01*
X12013191Y11786966D02*
X14792500D01*
X12028479Y11773466D02*
X14792500D01*
X12039220Y11759966D02*
X14792500D01*
X12046939Y11746466D02*
X14792500D01*
X12052320Y11732966D02*
X14792500D01*
X12055723Y11719466D02*
X14792500D01*
X12057334Y11705966D02*
X14792500D01*
X12057236Y11692466D02*
X14792500D01*
X12055422Y11678966D02*
X14792500D01*
X12051802Y11665466D02*
X14792500D01*
X12046172Y11651966D02*
X14792500D01*
X12038147Y11638466D02*
X14792500D01*
X12026982Y11624966D02*
X14792500D01*
X12010977Y11611466D02*
X14792500D01*
X11983846Y11597966D02*
X14792500D01*
X10207500Y11584466D02*
X14792500D01*
X10207500Y11570966D02*
X14792500D01*
X10207500Y11557466D02*
X14792500D01*
X10207500Y11543966D02*
X14792500D01*
X10207500Y11530466D02*
X14792500D01*
X10207500Y11516966D02*
X14792500D01*
X10207500Y11503466D02*
X14792500D01*
X10207500Y11489966D02*
X14792500D01*
X10207500Y11476466D02*
X14792500D01*
X10207500Y11462966D02*
X14792500D01*
X10207500Y11449466D02*
X14792500D01*
X10207500Y11435966D02*
X14792500D01*
X10207500Y11422466D02*
X14792500D01*
X10207500Y11408966D02*
X14792500D01*
X10207500Y11395466D02*
X14792500D01*
X10207500Y11381966D02*
X14792500D01*
X10207500Y11368466D02*
X14792500D01*
X10207500Y11354966D02*
X14792500D01*
X10207500Y11341466D02*
X14792500D01*
X10207500Y11327966D02*
X14792500D01*
X10207500Y11314466D02*
X14792500D01*
X10207500Y11300966D02*
X14792500D01*
X10207500Y11287466D02*
X14792500D01*
X10207500Y11273966D02*
X14792500D01*
X10207500Y11260466D02*
X14792500D01*
X10207500Y11246966D02*
X14792500D01*
X10207500Y11233466D02*
X14792500D01*
X10207500Y11219966D02*
X14792500D01*
X10207500Y11206466D02*
X14792500D01*
X10207500Y11192966D02*
X14792500D01*
X10207500Y11179466D02*
X14792500D01*
X10207500Y11165966D02*
X14792500D01*
X10207500Y11152466D02*
X14792500D01*
X10207500Y11138966D02*
X14792500D01*
X10207500Y11125466D02*
X14792500D01*
X10207500Y11111966D02*
X14792500D01*
X10207500Y11098466D02*
X14792500D01*
X10207500Y11084966D02*
X14792500D01*
X10207500Y11071466D02*
X14792500D01*
X10207500Y11057966D02*
X14792500D01*
X10207500Y11044466D02*
X14792500D01*
X10207500Y11030966D02*
X14792500D01*
X10207500Y11017466D02*
X14792500D01*
X10207500Y11003966D02*
X14792500D01*
X10207500Y10990466D02*
X14792500D01*
X10207500Y10976966D02*
X14792500D01*
X10207500Y10963466D02*
X14792500D01*
X10207500Y10949966D02*
X14792500D01*
X10207500Y10936466D02*
X14792500D01*
X10207500Y10922966D02*
X14792500D01*
X14567546Y10909466D02*
X14792500D01*
X14624241Y10895966D02*
X14792500D01*
X14661073Y10882466D02*
X14792500D01*
X14689971Y10868966D02*
X14792500D01*
X14714170Y10855466D02*
X14792500D01*
X14735126Y10841966D02*
X14792500D01*
X14753643Y10828466D02*
X14792500D01*
X14770224Y10814966D02*
X14792500D01*
X14775870Y14189966D02*
X14792263D01*
X10624723Y12880466D02*
X14483796D01*
X14043618Y12637466D02*
X14448266D01*
X10626839Y12866966D02*
X14440882D01*
X10567546Y10909466D02*
X14432453D01*
X14026621Y12650966D02*
X14424896D01*
X10627499Y12853466D02*
X14420233D01*
X10207500Y12664466D02*
X14409224D01*
X12332404Y14095466D02*
X14407381D01*
X10626725Y12839966D02*
X14405839D01*
X10207500Y12677966D02*
X14397651D01*
X10624492Y12826466D02*
X14395095D01*
X10207500Y12691466D02*
X14388887D01*
X10620717Y12812966D02*
X14386954D01*
X10207500Y12704966D02*
X14382305D01*
X10615249Y12799466D02*
X14380881D01*
X10207500Y12718466D02*
X14377550D01*
X10607832Y12785966D02*
X14376571D01*
X10624241Y10895966D02*
X14375758D01*
X10536935Y12731966D02*
X14374417D01*
X10598024Y12772466D02*
X14373843D01*
X10566909Y12745466D02*
X14372785D01*
X10585000Y12758966D02*
X14372596D01*
X12332125Y14108966D02*
X14361009D01*
X10661073Y10882466D02*
X14338926D01*
X12330126Y14122466D02*
X14327680D01*
X10689971Y10868966D02*
X14310028D01*
X12326305Y14135966D02*
X14300738D01*
X10714170Y10855466D02*
X14285829D01*
X12320443Y14149466D02*
X14277847D01*
X10735126Y10841966D02*
X14264874D01*
X12312129Y14162966D02*
X14257855D01*
X10753643Y10828466D02*
X14246356D01*
X12300559Y14176466D02*
X14240093D01*
X10770224Y10814966D02*
X14229775D01*
X12283841Y14189966D02*
X14224129D01*
X10785207Y10801466D02*
X14214792D01*
X12254172Y14203466D02*
X14209666D01*
X10798832Y10787966D02*
X14201167D01*
X11161188Y14216966D02*
X14196491D01*
X10804471Y14783966D02*
X14195528D01*
X10807190Y10220966D02*
X14192809D01*
X10811277Y10774466D02*
X14188722D01*
X10814759Y14770466D02*
X14185241D01*
X10815558Y14230466D02*
X14184441D01*
X10818931Y10234466D02*
X14181068D01*
X10822679Y10760966D02*
X14177320D01*
X10825873Y14756966D02*
X14174126D01*
X10826607Y14243966D02*
X14173392D01*
X10829703Y10247966D02*
X14170296D01*
X10833145Y10747466D02*
X14166854D01*
X10836079Y14743466D02*
X14163920D01*
X10836753Y14257466D02*
X14163246D01*
X10839598Y10261466D02*
X14160401D01*
X10842760Y10733966D02*
X14157239D01*
X10845457Y14729966D02*
X14154542D01*
X10846076Y14270966D02*
X14153923D01*
X10848691Y10274966D02*
X14151308D01*
X10851596Y10720466D02*
X14148403D01*
X10854072Y14716466D02*
X14145927D01*
X10854641Y14284466D02*
X14145358D01*
X10857042Y10288466D02*
X14142957D01*
X10859708Y10706966D02*
X14140291D01*
X10861980Y14702966D02*
X14138019D01*
X10862502Y14297966D02*
X14137497D01*
X10864702Y10301966D02*
X14135297D01*
X10867145Y10693466D02*
X14132854D01*
X10869226Y14689466D02*
X14130774D01*
X10869703Y14311466D02*
X14130296D01*
X10871716Y10315466D02*
X14128283D01*
X10873948Y10679966D02*
X14126051D01*
X10875847Y14675966D02*
X14124152D01*
X10876282Y14324966D02*
X14123717D01*
X10878117Y10328966D02*
X14121882D01*
X10880150Y10666466D02*
X14119849D01*
X10881877Y14662466D02*
X14118123D01*
X10882272Y14338466D02*
X14117727D01*
X10883938Y10342466D02*
X14116061D01*
X10885780Y10652966D02*
X14114219D01*
X10887342Y14648966D02*
X14112657D01*
X10887700Y14351966D02*
X14112299D01*
X10889204Y10355966D02*
X14110795D01*
X10890863Y10639466D02*
X14109136D01*
X10892268Y14635466D02*
X14107731D01*
X10892589Y14365466D02*
X14107410D01*
X10893937Y10369466D02*
X14106062D01*
X10895421Y10625966D02*
X14104578D01*
X10896673Y14621966D02*
X14103326D01*
X10896958Y14378966D02*
X14103041D01*
X10898156Y10382966D02*
X14101843D01*
X10899470Y10612466D02*
X14100529D01*
X10900575Y14608466D02*
X14099424D01*
X10900826Y14392466D02*
X14099173D01*
X10901878Y10396466D02*
X14098121D01*
X10903027Y10598966D02*
X14096972D01*
X10903988Y14594966D02*
X14096011D01*
X10904206Y14405966D02*
X14095793D01*
X10905116Y10409966D02*
X14094883D01*
X10906104Y10585466D02*
X14093895D01*
X10906925Y14581466D02*
X14093074D01*
X10907111Y14419466D02*
X14092888D01*
X10907882Y10423466D02*
X14092117D01*
X10908712Y10571966D02*
X14091287D01*
X10909397Y14567966D02*
X14090602D01*
X10909550Y14432966D02*
X14090449D01*
X10910185Y10436966D02*
X14089814D01*
X10910861Y10558466D02*
X14089138D01*
X10911410Y14554466D02*
X14088589D01*
X10911533Y14446466D02*
X14088466D01*
X10912033Y10450466D02*
X14087966D01*
X10912557Y10544966D02*
X14087442D01*
X10912973Y14540966D02*
X14087026D01*
X10913065Y14459966D02*
X14086934D01*
X10913433Y10463966D02*
X14086566D01*
X10913805Y10531466D02*
X14086194D01*
X10914090Y14527466D02*
X14085909D01*
X10914151Y14473466D02*
X14085848D01*
X10914388Y10477466D02*
X14085611D01*
X10914611Y10517966D02*
X14085388D01*
X10914765Y14513966D02*
X14085234D01*
X10914795Y14486966D02*
X14085204D01*
X10914902Y10490966D02*
X14085097D01*
X10914976Y10504466D02*
X14085023D01*
X10915000Y14500466D02*
X14084999D01*
X10207500Y12542966D02*
X13992684D01*
X10207500Y12650966D02*
X13973378D01*
X10207500Y12556466D02*
X13962434D01*
X10207500Y12637466D02*
X13956381D01*
X10207500Y12569966D02*
X13950966D01*
X10207500Y12623966D02*
X13947732D01*
X10207500Y12583466D02*
X13944927D01*
X10207500Y12610466D02*
X13943460D01*
X10207500Y12596966D02*
X13942579D01*
X11617700Y12893966D02*
X13582299D01*
X12822136Y13096466D02*
X13552560D01*
X11654717Y12907466D02*
X13545283D01*
X12816665Y13082966D02*
X13531641D01*
X11672870Y12920966D02*
X13527129D01*
X12808837Y13069466D02*
X13517958D01*
X11685215Y12934466D02*
X13514784D01*
X12797945Y13055966D02*
X13508217D01*
X11694068Y12947966D02*
X13505931D01*
X12782404Y13042466D02*
X13501243D01*
X11700357Y12961466D02*
X13499642D01*
X12756723Y13028966D02*
X13496475D01*
X11704545Y12974966D02*
X13495454D01*
X11706382Y13015466D02*
X13493617D01*
X11706880Y12988466D02*
X13493119D01*
X11707482Y13001966D02*
X13492517D01*
X12506345Y12151466D02*
X12714491D01*
X10207500Y11948966D02*
X12713276D01*
X12507464Y12137966D02*
X12688208D01*
X10207500Y11962466D02*
X12687595D01*
X10207500Y13231466D02*
X12684491D01*
X11703524Y13028966D02*
X12683276D01*
X12505362Y12124466D02*
X12672468D01*
X10207500Y11975966D02*
X12672054D01*
X12499632Y12110966D02*
X12661459D01*
X10207500Y11989466D02*
X12661162D01*
X10207500Y13217966D02*
X12658208D01*
X11698757Y13042466D02*
X12657595D01*
X12488694Y12097466D02*
X12653546D01*
X10207500Y12002966D02*
X12653334D01*
X12462906Y12083966D02*
X12648006D01*
X10207500Y12016466D02*
X12647863D01*
X10207500Y12070466D02*
X12644465D01*
X10207500Y12029966D02*
X12644382D01*
X10207500Y12056966D02*
X12642725D01*
X10207500Y12043466D02*
X12642698D01*
X10207500Y13204466D02*
X12642468D01*
X11691782Y13055966D02*
X12642054D01*
X10207500Y13190966D02*
X12631459D01*
X11682041Y13069466D02*
X12631162D01*
X10207500Y13177466D02*
X12623546D01*
X11668358Y13082966D02*
X12623334D01*
X10207500Y13163966D02*
X12618006D01*
X11647439Y13096466D02*
X12617863D01*
X10207500Y13150466D02*
X12614465D01*
X10207500Y13109966D02*
X12614382D01*
X10207500Y13136966D02*
X12612725D01*
X10207500Y13123466D02*
X12612698D01*
X10207500Y12083966D02*
X12437093D01*
X10207500Y12191966D02*
X12425387D01*
X10207500Y12097466D02*
X12411306D01*
X10207500Y12178466D02*
X12407260D01*
X10207500Y12110966D02*
X12400367D01*
X10207500Y12164966D02*
X12398202D01*
X10207500Y12124466D02*
X12394637D01*
X10207500Y12151466D02*
X12393654D01*
X10207500Y12137966D02*
X12392535D01*
X11205686Y14203466D02*
X12195827D01*
X11213235Y14000966D02*
X12183181D01*
X11225580Y14189966D02*
X12166158D01*
X11230563Y14014466D02*
X12159881D01*
X11239214Y14176466D02*
X12149440D01*
X11242830Y14027966D02*
X12145203D01*
X11249204Y14162966D02*
X12137870D01*
X11251883Y14041466D02*
X12134832D01*
X11256580Y14149466D02*
X12129556D01*
X11258528Y14054966D02*
X12127386D01*
X11261860Y14135966D02*
X12123694D01*
X11263190Y14068466D02*
X12122228D01*
X11265332Y14122466D02*
X12119873D01*
X11266108Y14081966D02*
X12119022D01*
X11267157Y14108966D02*
X12117874D01*
X11267413Y14095466D02*
X12117595D01*
X10207500Y11908466D02*
X12039059D01*
X10207500Y11813966D02*
X12035543D01*
X10207500Y11894966D02*
X12024353D01*
X10207500Y11827466D02*
X12022588D01*
X10207500Y11881466D02*
X12016656D01*
X10207500Y11840966D02*
X12015740D01*
X10207500Y11867966D02*
X12013054D01*
X10207500Y11854466D02*
X12012766D01*
X10207500Y11597966D02*
X11916153D01*
X10207500Y11800466D02*
X11911753D01*
X10207500Y11611466D02*
X11889022D01*
X10207500Y11786966D02*
X11886808D01*
X10207500Y11624966D02*
X11873017D01*
X10207500Y11773466D02*
X11871520D01*
X10207500Y11638466D02*
X11861852D01*
X10207500Y11759966D02*
X11860779D01*
X10207500Y11651966D02*
X11853827D01*
X10207500Y11746466D02*
X11853060D01*
X10207500Y11665466D02*
X11848197D01*
X10207500Y11732966D02*
X11847679D01*
X10207500Y11678966D02*
X11844577D01*
X10207500Y11719466D02*
X11844276D01*
X10207500Y11692466D02*
X11842763D01*
X10207500Y11705966D02*
X11842665D01*
X10621074Y12893966D02*
X11582299D01*
X10207500Y13096466D02*
X11552560D01*
X10615748Y12907466D02*
X11545283D01*
X10207500Y13082966D02*
X11531641D01*
X10608498Y12920966D02*
X11527129D01*
X10207500Y13069466D02*
X11517958D01*
X10598901Y12934466D02*
X11514784D01*
X10207500Y13055966D02*
X11508217D01*
X10586178Y12947966D02*
X11505931D01*
X10207500Y13042466D02*
X11501243D01*
X10568609Y12961466D02*
X11499642D01*
X10207500Y13028966D02*
X11496475D01*
X10540292Y12974966D02*
X11495454D01*
X10207500Y13015466D02*
X11493617D01*
X10207500Y12988466D02*
X11493119D01*
X10207500Y13001966D02*
X11492517D01*
X10803508Y14216966D02*
X11138811D01*
X10207500Y13987466D02*
X11116197D01*
X10207500Y13960466D02*
X11109956D01*
X10207500Y13744466D02*
X11098336D01*
X10790333Y14203466D02*
X11094313D01*
X10207500Y14000966D02*
X11086764D01*
X10207500Y13946966D02*
X11083638D01*
X10207500Y13757966D02*
X11076950D01*
X10775870Y14189966D02*
X11074419D01*
X10207500Y14014466D02*
X11069436D01*
X10207500Y13933466D02*
X11067297D01*
X10207500Y13771466D02*
X11062599D01*
X10759906Y14176466D02*
X11060785D01*
X10207500Y14027966D02*
X11057169D01*
X10207500Y13919966D02*
X11055601D01*
X10207500Y13784966D02*
X11052137D01*
X10742144Y14162966D02*
X11050795D01*
X10207500Y14041466D02*
X11048116D01*
X10207500Y13906466D02*
X11046956D01*
X10207500Y13798466D02*
X11044403D01*
X10722152Y14149466D02*
X11043419D01*
X10207500Y14054966D02*
X11041471D01*
X10207500Y13892966D02*
X11040637D01*
X10207500Y13811966D02*
X11038825D01*
X10699261Y14135966D02*
X11038139D01*
X10207500Y14068466D02*
X11036809D01*
X10207500Y13879466D02*
X11036254D01*
X10207500Y13825466D02*
X11035089D01*
X10672319Y14122466D02*
X11034667D01*
X10207500Y14081966D02*
X11033891D01*
X10207500Y13865966D02*
X11033589D01*
X10207500Y13838966D02*
X11033018D01*
X10638990Y14108966D02*
X11032842D01*
X10592618Y14095466D02*
X11032586D01*
X10207500Y13852466D02*
X11032525D01*
X10207500Y12731966D02*
X10463064D01*
X10207500Y12974966D02*
X10459707D01*
X10207500Y12745466D02*
X10433090D01*
X10207500Y10909466D02*
X10432453D01*
X10207500Y12961466D02*
X10431390D01*
X10207500Y12758966D02*
X10414999D01*
X10207500Y12947966D02*
X10413822D01*
X10207500Y14095466D02*
X10407381D01*
X10207500Y12772466D02*
X10401976D01*
X10207500Y12934466D02*
X10401098D01*
X10207500Y12785966D02*
X10392167D01*
X10207500Y12920966D02*
X10391501D01*
X10207500Y12799466D02*
X10384750D01*
X10207500Y12907466D02*
X10384251D01*
X10207500Y12812966D02*
X10379282D01*
X10207500Y12893966D02*
X10378925D01*
X10207500Y10895966D02*
X10375758D01*
X10207500Y12826466D02*
X10375507D01*
X10207500Y12880466D02*
X10375276D01*
X10207500Y12839966D02*
X10373274D01*
X10207500Y12866966D02*
X10373160D01*
X10207500Y12853466D02*
X10372500D01*
X10207500Y14108966D02*
X10361009D01*
X10207500Y10882466D02*
X10338926D01*
X10207500Y14122466D02*
X10327680D01*
X10207500Y10868966D02*
X10310028D01*
X10207500Y14135966D02*
X10300738D01*
X10207500Y10855466D02*
X10285829D01*
X10207500Y14149466D02*
X10277847D01*
X10207500Y10841966D02*
X10264874D01*
X10207500Y14162966D02*
X10257855D01*
X10207500Y10828466D02*
X10246356D01*
X10207500Y14176466D02*
X10240093D01*
X10207500Y10814966D02*
X10229775D01*
X10207736Y14189966D02*
X10224129D01*
G54D19*
X8999999Y31600000D02*
G03X8999999I-199999D01*
G01X8550000D02*
X9050000D01*
X8800000Y31850000D02*
Y31350000D01*
X39799999Y8400000D02*
G03X39799999I-199999D01*
G01X39350000D02*
X39850000D01*
X39600000Y8650000D02*
Y8150000D01*
X40399999Y8400000D02*
G03X40399999I-199999D01*
G01X39950000D02*
X40450000D01*
X40200000Y8650000D02*
Y8150000D01*
G54D20*
X12070000Y11860000D03*
X13300000Y12100000D03*
X13500000D03*
X13700000D03*
X13900000D03*
X14100000D03*
X12450000Y12140000D03*
X13400000Y12200000D03*
X13300000Y12300000D03*
X13500000D03*
X13600000Y12200000D03*
X13700000Y12300000D03*
X13800000Y12200000D03*
X13900000Y12300000D03*
X14200000Y12200000D03*
X14100000Y12300000D03*
X12160000Y12560000D03*
X12240000D03*
X14000000Y12600000D03*
X14200000Y12400000D03*
X12160000Y12640000D03*
X12240000D03*
G54D22*
X10500000Y12854000D03*
Y12346000D03*
X14500000Y12246000D03*
Y12754000D03*
G74*
X0Y0D02*
M02*
