*
*
G04 PADS Layout (Build Number 2004.211.1) generated Gerber (RS-274-X) file*
G04 PC Version=2.1*
*
%IN "BD9A300MUV-EVK-004.pcb"*%
*
%MOMM*%
*
%FSLAX35Y35*%
*
*
*
*
G04 PC Standard Apertures*
*
*
G04 Thermal Relief Aperture macro.*
%AMTER*
1,1,$1,0,0*
1,0,$1-$2,0,0*
21,0,$3,$4,0,0,45*
21,0,$3,$4,0,0,135*
%
*
*
G04 Annular Aperture macro.*
%AMANN*
1,1,$1,0,0*
1,0,$2,0,0*
%
*
*
G04 Odd Aperture macro.*
%AMODD*
1,1,$1,0,0*
1,0,$1-0.005,0,0*
%
*
*
G04 PC Custom Aperture Macros*
*
*
*
*
*
*
G04 PC Aperture Table*
*
%ADD019C,0.2*%
%ADD026R,1X0.8*%
%ADD027R,1.8X1.3*%
%ADD029C,1.9*%
%ADD030R,1.8X2.3*%
%ADD031C,1.7*%
%ADD032C,3.4*%
%ADD033C,2.1*%
%ADD042R,0.8X1*%
%ADD050R,0.9X0.37*%
%ADD051R,0.37X0.9*%
%ADD052R,1.1X1.1*%
%ADD053R,1.3X1.3*%
*
*
*
*
G04 PC Custom Flashes*
G04 Layer Name BD9A300MUV-EVK-004.pcb - flashes*
%LPD*%
*
*
G04 PC Circuitry*
G04 Layer Name BD9A300MUV-EVK-004.pcb - circuitry*
%LPD*%
*
G54D19*
G01X8999999Y31600000D02*
G75*
G03X8999999I-199999D01*
G01X8550000D02*
X9050000D01*
X8800000Y31850000D02*
Y31350000D01*
X39799999Y8400000D02*
G03X39799999I-199999D01*
G01X39350000D02*
X39850000D01*
X39600000Y8650000D02*
Y8150000D01*
X40399999Y8400000D02*
G03X40399999I-199999D01*
G01X39950000D02*
X40450000D01*
X40200000Y8650000D02*
Y8150000D01*
G54D26*
X11850000Y12670000D03*
Y12530000D03*
X12250000Y11970000D03*
Y11830000D03*
X12450000Y12370000D03*
Y12230000D03*
X12250000Y12130000D03*
Y12270000D03*
X12450000Y11770000D03*
Y11630000D03*
Y12070000D03*
Y11930000D03*
G54D27*
X11600000Y12725000D03*
Y12475000D03*
X11300000Y12725000D03*
Y12475000D03*
G54D29*
X11150000Y14100000D03*
Y13850000D03*
Y13600000D03*
G54D30*
X12645000Y12600000D03*
X13255000D03*
G54D31*
X11600000Y13000000D03*
Y12200000D03*
X13600000Y13000000D03*
Y12100000D03*
X12225000Y14100000D03*
X12720000Y13130000D03*
X11950000Y11700000D03*
X12750000Y12050000D03*
G54D32*
X10500000Y10500000D03*
X14500000D03*
X10500000Y14500000D03*
X14500000D03*
G54D33*
X10500000Y12854000D03*
Y12346000D03*
X14500000Y12246000D03*
Y12754000D03*
G54D42*
X12070000Y11950000D03*
X11930000D03*
Y12250000D03*
X12070000D03*
X11930000Y12100000D03*
X12070000D03*
X12330000Y13100000D03*
X12470000D03*
X11830000Y14100000D03*
X11970000D03*
X12330000Y12900000D03*
X12470000D03*
G54D50*
X12060000Y12675000D03*
Y12625000D03*
Y12575000D03*
Y12525000D03*
X12340000D03*
Y12575000D03*
Y12625000D03*
Y12675000D03*
G54D51*
X12125000Y12460000D03*
X12175000D03*
X12225000D03*
X12275000D03*
Y12740000D03*
X12225000D03*
X12175000D03*
X12125000D03*
G54D52*
X12200000Y12600000D03*
G54D53*
X13500000D03*
Y12400000D03*
X13700000Y12600000D03*
Y12400000D03*
X13900000Y12600000D03*
Y12400000D03*
G74*
X0Y0D02*
M02*
